{"glyphs":{"0":{"ha":1173,"x_min":0,"x_max":0,"o":"m 738 922 b 183 369 466 922 183 748 b 591 -26 183 97 360 -26 b 1143 523 867 -26 1143 140 b 738 922 1143 797 957 922 z m 329 382 b 726 802 329 653 516 802 b 998 510 895 802 998 706 b 601 93 998 235 810 93 b 329 382 433 93 329 186 z "},"1":{"ha":595,"x_min":0,"x_max":0,"o":"m 431 770 l 299 0 l 436 0 l 591 896 l 483 896 l 222 842 l 222 740 z "},"2":{"ha":975,"x_min":0,"x_max":0,"o":"m 647 522 l 420 447 b 129 150 242 387 158 317 l 103 0 l 896 0 l 916 117 l 263 117 l 271 158 b 456 330 283 228 323 285 l 692 407 b 999 709 933 485 999 548 b 682 922 999 856 876 922 b 282 849 516 922 381 885 l 317 730 b 674 800 403 765 542 800 b 853 694 799 800 853 772 b 647 522 853 613 816 578 z "},"3":{"ha":979,"x_min":0,"x_max":0,"o":"m 457 -27 b 932 292 730 -27 932 53 b 781 482 932 388 877 463 b 963 713 894 517 963 602 b 651 922 963 880 813 922 b 251 847 476 922 335 879 l 282 731 b 634 801 376 766 515 801 b 818 692 775 801 818 752 b 547 524 818 619 760 524 l 368 524 l 349 409 l 553 409 b 787 277 703 409 787 395 b 475 94 787 163 669 94 b 128 165 325 94 210 129 l 84 48 b 457 -27 175 2 297 -27 z "},"4":{"ha":978,"x_min":0,"x_max":0,"o":"m 681 181 l 649 0 l 782 0 l 813 181 l 977 181 l 996 288 l 832 288 l 937 896 l 753 896 l 126 317 l 102 181 z m 250 288 l 783 778 l 699 288 z "},"5":{"ha":966,"x_min":0,"x_max":0,"o":"m 162 163 l 119 45 b 472 -27 216 -3 332 -27 b 919 322 742 -27 919 78 b 621 571 919 508 780 571 b 374 530 501 571 422 547 l 433 781 l 914 781 l 934 896 l 333 896 l 231 466 l 302 393 b 595 451 388 424 472 451 b 773 303 721 451 773 401 b 485 94 773 168 667 94 b 162 163 349 94 255 122 z "},"6":{"ha":1041,"x_min":0,"x_max":0,"o":"m 738 922 b 181 359 406 922 181 692 b 560 -27 181 85 339 -27 b 1012 338 902 -27 1012 190 b 685 599 1012 537 848 599 b 336 474 531 599 406 538 b 728 801 374 661 518 801 b 998 748 847 801 919 778 l 1047 863 b 738 922 986 887 879 922 z m 323 346 b 667 478 408 422 526 478 b 866 322 774 478 866 440 b 572 94 866 156 705 94 b 323 346 438 94 333 158 z "},"7":{"ha":820,"x_min":0,"x_max":0,"o":"m 160 52 l 263 -27 l 904 773 l 925 896 l 192 896 l 171 781 l 756 781 z "},"8":{"ha":1056,"x_min":0,"x_max":0,"o":"m 425 456 b 153 195 256 416 153 327 b 544 -27 153 28 334 -27 b 1012 248 787 -27 1012 51 b 825 457 1012 349 943 426 b 1042 694 939 487 1042 560 b 694 922 1042 839 898 922 b 273 643 446 922 273 816 b 425 456 273 545 334 488 z m 299 216 b 613 394 299 326 444 394 b 869 246 790 394 869 342 b 560 85 869 135 708 85 b 299 216 401 85 299 126 z m 417 649 b 680 810 417 751 524 810 b 897 678 820 810 897 763 b 628 503 897 567 756 503 b 417 649 510 503 417 560 z "},"9":{"ha":1054,"x_min":0,"x_max":0,"o":"m 466 -27 b 1028 549 842 -27 1028 216 b 644 922 1028 810 874 922 b 197 554 392 922 197 781 b 503 299 197 360 347 299 b 876 434 668 299 789 363 b 475 94 846 224 696 94 b 181 151 344 94 252 120 l 140 32 b 466 -27 206 2 306 -27 z m 342 565 b 638 801 342 717 469 801 b 885 565 799 801 882 710 b 531 420 794 477 667 420 b 342 565 414 420 342 456 z "}," ":{"ha":361,"x_min":0,"x_max":0,"o":""},"A":{"ha":1149,"x_min":0,"x_max":0,"o":"m 49 44 l 168 -28 l 328 212 l 899 212 l 974 -27 l 1110 17 l 818 896 l 630 896 z m 404 326 l 715 794 l 863 326 z "},"À":{"ha":1149,"x_min":0,"x_max":0,"o":"m 49 44 l 168 -28 l 328 212 l 899 212 l 974 -27 l 1110 17 l 818 896 l 630 896 z m 404 326 l 715 794 l 863 326 z m 488 1136 l 741 990 l 808 1084 l 561 1244 z "},"Á":{"ha":1149,"x_min":0,"x_max":0,"o":"m 49 44 l 168 -28 l 328 212 l 899 212 l 974 -27 l 1110 17 l 818 896 l 630 896 z m 404 326 l 715 794 l 863 326 z m 670 1081 l 719 983 l 1039 1131 l 986 1240 z "},"Â":{"ha":1149,"x_min":0,"x_max":0,"o":"m 49 44 l 168 -28 l 328 212 l 899 212 l 974 -27 l 1110 17 l 818 896 l 630 896 z m 404 326 l 715 794 l 863 326 z m 497 1065 l 572 985 l 756 1131 l 890 985 l 976 1060 l 818 1219 l 709 1219 z "},"Ã":{"ha":1149,"x_min":0,"x_max":0,"o":"m 49 44 l 168 -28 l 328 212 l 899 212 l 974 -27 l 1110 17 l 818 896 l 630 896 z m 404 326 l 715 794 l 863 326 z m 465 1055 l 553 1011 b 645 1085 581 1056 606 1085 b 724 1047 672 1085 691 1069 b 836 1008 753 1027 785 1008 b 1027 1149 904 1008 972 1040 l 938 1192 b 850 1113 907 1134 881 1113 b 780 1143 825 1113 807 1125 b 653 1192 742 1168 706 1192 b 465 1055 578 1192 510 1151 z "},"Ä":{"ha":1149,"x_min":0,"x_max":0,"o":"m 49 44 l 168 -28 l 328 212 l 899 212 l 974 -27 l 1110 17 l 818 896 l 630 896 z m 404 326 l 715 794 l 863 326 z m 522 1013 l 671 1013 l 696 1155 l 547 1155 z m 797 1013 l 947 1013 l 971 1155 l 822 1155 z "},"Å":{"ha":1149,"x_min":0,"x_max":0,"o":"m 49 44 l 168 -28 l 328 212 l 899 212 l 974 -27 l 1110 17 l 818 896 l 630 896 z m 404 326 l 715 794 l 863 326 z m 575 1103 b 735 969 575 1025 632 969 b 938 1140 853 969 938 1044 b 777 1276 938 1222 875 1276 b 575 1103 658 1276 575 1199 z m 674 1114 b 769 1196 674 1158 713 1196 b 838 1133 818 1196 838 1167 b 744 1050 838 1087 797 1050 b 674 1114 694 1050 674 1078 z "},"Ā":{"ha":1149,"x_min":0,"x_max":0,"o":"m 49 44 l 168 -28 l 328 212 l 899 212 l 974 -27 l 1110 17 l 818 896 l 630 896 z m 404 326 l 715 794 l 863 326 z m 513 1029 l 960 1029 l 978 1137 l 531 1137 z "},"Ă":{"ha":1149,"x_min":0,"x_max":0,"o":"m 49 44 l 168 -28 l 328 212 l 899 212 l 974 -27 l 1110 17 l 818 896 l 630 896 z m 404 326 l 715 794 l 863 326 z m 533 1169 b 729 990 533 1061 597 990 b 994 1195 878 990 963 1078 l 881 1210 b 740 1090 846 1108 792 1090 b 644 1204 690 1090 644 1108 l 644 1210 l 534 1195 b 533 1169 533 1185 533 1177 z "},"Ą":{"ha":1154,"x_min":0,"x_max":0,"o":"m 915 -290 b 1079 -261 978 -290 1037 -275 l 1058 -170 b 931 -194 1013 -185 976 -194 b 873 -143 894 -194 873 -181 b 1097 13 873 -99 917 -47 l 1110 17 l 818 896 l 630 896 l 49 44 l 168 -28 l 328 212 l 899 212 l 951 49 b 753 -162 815 -10 753 -75 b 915 -290 753 -243 813 -290 z m 404 326 l 715 794 l 863 326 z "},"Ǻ":{"ha":1149,"x_min":0,"x_max":0,"o":"m 49 44 l 168 -28 l 328 212 l 899 212 l 974 -27 l 1110 17 l 818 896 l 630 896 z m 404 326 l 715 794 l 863 326 z m 565 1065 b 724 931 565 987 622 931 b 928 1102 842 931 928 1006 b 767 1238 927 1183 865 1238 b 565 1065 648 1238 565 1161 z m 638 1350 l 688 1252 l 1007 1401 l 954 1510 z m 664 1076 b 758 1158 664 1119 702 1158 b 827 1094 808 1158 827 1129 b 733 1012 827 1049 787 1012 b 664 1076 684 1012 664 1040 z "},"B":{"ha":1153,"x_min":0,"x_max":0,"o":"m 806 896 l 313 896 l 158 0 l 669 0 b 1091 283 952 0 1091 90 b 936 476 1091 401 1028 458 b 1124 699 1042 506 1124 581 b 806 896 1124 849 1018 896 z m 322 121 l 371 407 l 747 407 b 942 276 897 407 942 363 b 690 121 942 181 853 121 z m 391 526 l 435 775 l 792 775 b 972 675 917 775 972 745 b 744 526 972 598 915 526 z "},"C":{"ha":1137,"x_min":0,"x_max":0,"o":"m 632 -27 b 1062 81 802 -27 933 17 l 1008 199 b 644 101 903 146 783 101 b 333 380 444 101 333 197 b 760 794 333 643 522 794 b 1085 722 879 794 988 763 l 1141 846 b 769 922 1047 884 935 922 b 183 369 490 922 183 759 b 632 -27 183 111 358 -27 z "},"Ç":{"ha":1137,"x_min":0,"x_max":0,"o":"m 411 -174 l 380 -264 b 530 -290 408 -276 465 -290 b 747 -117 679 -290 747 -228 b 717 -23 747 -82 738 -51 b 1062 81 847 -11 956 28 l 1008 199 b 644 101 903 146 783 101 b 333 380 444 101 333 197 b 760 794 333 643 522 794 b 1085 722 879 794 988 763 l 1141 846 b 769 922 1047 884 935 922 b 183 369 490 922 183 759 b 549 -22 183 138 323 3 b 632 -120 614 -55 632 -90 b 538 -195 632 -167 598 -195 b 411 -174 494 -195 447 -185 z "},"Ć":{"ha":1137,"x_min":0,"x_max":0,"o":"m 700 1081 l 749 983 l 1069 1131 l 1016 1240 z m 183 369 b 632 -27 183 111 358 -27 b 1062 81 802 -27 933 17 l 1008 199 b 644 101 903 146 783 101 b 333 380 444 101 333 197 b 760 794 333 643 522 794 b 1085 722 879 794 988 763 l 1141 846 b 769 922 1047 884 935 922 b 183 369 490 922 183 759 z "},"Ĉ":{"ha":1137,"x_min":0,"x_max":0,"o":"m 547 1065 l 622 985 l 805 1131 l 939 985 l 1026 1060 l 867 1219 l 758 1219 z m 183 369 b 632 -27 183 111 358 -27 b 1062 81 802 -27 933 17 l 1008 199 b 644 101 903 146 783 101 b 333 380 444 101 333 197 b 760 794 333 643 522 794 b 1085 722 879 794 988 763 l 1141 846 b 769 922 1047 884 935 922 b 183 369 490 922 183 759 z "},"Ċ":{"ha":1137,"x_min":0,"x_max":0,"o":"m 632 -27 b 1062 81 802 -27 933 17 l 1008 199 b 644 101 903 146 783 101 b 333 380 444 101 333 197 b 760 794 333 643 522 794 b 1085 722 879 794 988 763 l 1141 846 b 769 922 1047 884 935 922 b 183 369 490 922 183 759 b 632 -27 183 111 358 -27 z m 723 1013 l 872 1013 l 897 1155 l 748 1155 z "},"Č":{"ha":1137,"x_min":0,"x_max":0,"o":"m 571 1173 l 729 1018 l 835 1018 l 1044 1174 l 971 1250 l 790 1106 l 659 1249 z m 183 369 b 632 -27 183 111 358 -27 b 1062 81 802 -27 933 17 l 1008 199 b 644 101 903 146 783 101 b 333 380 444 101 333 197 b 760 794 333 643 522 794 b 1085 722 879 794 988 763 l 1141 846 b 769 922 1047 884 935 922 b 183 369 490 922 183 759 z "},"D":{"ha":1201,"x_min":0,"x_max":0,"o":"m 158 0 l 558 0 b 1172 526 967 0 1172 172 b 712 896 1172 772 1044 896 l 313 896 z m 322 122 l 435 774 l 699 774 b 1021 511 936 774 1021 683 b 575 122 1021 301 910 122 z "},"Ď":{"ha":1201,"x_min":0,"x_max":0,"o":"m 519 1173 l 677 1018 l 783 1018 l 992 1174 l 919 1250 l 738 1106 l 607 1249 z m 158 0 l 558 0 b 1172 526 967 0 1172 172 b 712 896 1172 772 1044 896 l 313 896 z m 322 122 l 435 774 l 699 774 b 1021 511 936 774 1021 683 b 575 122 1021 301 910 122 z "},"E":{"ha":1042,"x_min":0,"x_max":0,"o":"m 313 896 l 158 0 l 964 0 l 985 121 l 322 121 l 369 395 l 921 395 l 942 515 l 390 515 l 435 775 l 1083 775 l 1104 896 z "},"È":{"ha":1042,"x_min":0,"x_max":0,"o":"m 313 896 l 158 0 l 964 0 l 985 121 l 322 121 l 369 395 l 921 395 l 942 515 l 390 515 l 435 775 l 1083 775 l 1104 896 z m 526 1136 l 778 990 l 845 1084 l 599 1244 z "},"É":{"ha":1042,"x_min":0,"x_max":0,"o":"m 621 1081 l 670 983 l 990 1131 l 937 1240 z m 158 0 l 964 0 l 985 121 l 322 121 l 369 395 l 921 395 l 942 515 l 390 515 l 435 775 l 1083 775 l 1104 896 l 313 896 z "},"Ê":{"ha":1042,"x_min":0,"x_max":0,"o":"m 492 1065 l 567 985 l 751 1131 l 885 985 l 972 1060 l 813 1219 l 704 1219 z m 158 0 l 964 0 l 985 121 l 322 121 l 369 395 l 921 395 l 942 515 l 390 515 l 435 775 l 1083 775 l 1104 896 l 313 896 z "},"Ë":{"ha":1042,"x_min":0,"x_max":0,"o":"m 313 896 l 158 0 l 964 0 l 985 121 l 322 121 l 369 395 l 921 395 l 942 515 l 390 515 l 435 775 l 1083 775 l 1104 896 z m 528 1013 l 676 1013 l 701 1155 l 552 1155 z m 803 1013 l 952 1013 l 976 1155 l 828 1155 z "},"Ē":{"ha":1042,"x_min":0,"x_max":0,"o":"m 313 896 l 158 0 l 964 0 l 985 121 l 322 121 l 369 395 l 921 395 l 942 515 l 390 515 l 435 775 l 1083 775 l 1104 896 z m 528 1029 l 975 1029 l 994 1137 l 547 1137 z "},"Ĕ":{"ha":1042,"x_min":0,"x_max":0,"o":"m 313 896 l 158 0 l 964 0 l 985 121 l 322 121 l 369 395 l 921 395 l 942 515 l 390 515 l 435 775 l 1083 775 l 1104 896 z m 539 1169 b 735 990 539 1061 602 990 b 1000 1195 883 990 969 1078 l 886 1210 b 746 1090 851 1108 798 1090 b 650 1204 695 1090 650 1108 l 650 1210 l 540 1195 b 539 1169 539 1185 539 1177 z "},"Ė":{"ha":1042,"x_min":0,"x_max":0,"o":"m 313 896 l 158 0 l 964 0 l 985 121 l 322 121 l 369 395 l 921 395 l 942 515 l 390 515 l 435 775 l 1083 775 l 1104 896 z m 671 1013 l 819 1013 l 844 1155 l 696 1155 z "},"Ę":{"ha":1042,"x_min":0,"x_max":0,"o":"m 772 -290 b 935 -261 834 -290 893 -275 l 915 -170 b 788 -194 869 -185 832 -194 b 729 -143 751 -194 729 -181 b 963 0 729 -103 776 -47 l 964 0 l 985 121 l 322 121 l 369 395 l 921 395 l 942 515 l 390 515 l 435 775 l 1083 775 l 1104 896 l 313 896 l 158 0 l 746 0 b 610 -162 652 -43 610 -96 b 772 -290 610 -243 670 -290 z "},"Ě":{"ha":1042,"x_min":0,"x_max":0,"o":"m 518 1173 l 676 1018 l 783 1018 l 991 1174 l 918 1250 l 738 1106 l 606 1249 z m 158 0 l 964 0 l 985 121 l 322 121 l 369 395 l 921 395 l 942 515 l 390 515 l 435 775 l 1083 775 l 1104 896 l 313 896 z "},"F":{"ha":977,"x_min":0,"x_max":0,"o":"m 313 896 l 158 0 l 301 0 l 363 358 l 874 358 l 894 477 l 383 477 l 435 775 l 1061 775 l 1081 896 z "},"G":{"ha":1189,"x_min":0,"x_max":0,"o":"m 636 -27 b 1063 69 821 -27 947 19 l 1133 472 l 672 472 l 651 353 l 973 353 l 939 157 b 648 101 848 120 777 101 b 332 375 448 101 332 183 b 778 794 332 643 527 794 b 1117 726 874 794 988 772 l 1169 850 b 790 922 1060 890 944 922 b 181 360 481 922 181 751 b 636 -27 181 100 365 -27 z "},"Ĝ":{"ha":1189,"x_min":0,"x_max":0,"o":"m 558 1065 l 633 985 l 817 1131 l 951 985 l 1038 1060 l 879 1219 l 770 1219 z m 181 360 b 636 -27 181 100 365 -27 b 1063 69 821 -27 947 19 l 1133 472 l 672 472 l 651 353 l 973 353 l 939 157 b 648 101 848 120 777 101 b 332 375 448 101 332 183 b 778 794 332 643 527 794 b 1117 726 874 794 988 772 l 1169 850 b 790 922 1060 890 944 922 b 181 360 481 922 181 751 z "},"Ğ":{"ha":1189,"x_min":0,"x_max":0,"o":"m 636 -27 b 1063 69 821 -27 947 19 l 1133 472 l 672 472 l 651 353 l 973 353 l 939 157 b 648 101 848 120 777 101 b 332 375 448 101 332 183 b 778 794 332 643 527 794 b 1117 726 874 794 988 772 l 1169 850 b 790 922 1060 890 944 922 b 181 360 481 922 181 751 b 636 -27 181 100 365 -27 z m 595 1169 b 791 990 595 1061 658 990 b 1056 1195 940 990 1025 1078 l 942 1210 b 802 1090 908 1108 854 1090 b 706 1204 751 1090 706 1108 l 706 1210 l 596 1195 b 595 1169 595 1185 595 1177 z "},"Ġ":{"ha":1189,"x_min":0,"x_max":0,"o":"m 636 -27 b 1063 69 821 -27 947 19 l 1133 472 l 672 472 l 651 353 l 973 353 l 939 157 b 648 101 848 120 777 101 b 332 375 448 101 332 183 b 778 794 332 643 527 794 b 1117 726 874 794 988 772 l 1169 850 b 790 922 1060 890 944 922 b 181 360 481 922 181 751 b 636 -27 181 100 365 -27 z m 729 1013 l 878 1013 l 903 1155 l 754 1155 z "},"Ģ":{"ha":1189,"x_min":0,"x_max":0,"o":"m 576 -399 l 691 -235 l 716 -90 l 567 -90 l 543 -230 l 592 -230 l 519 -367 z m 181 360 b 636 -27 181 100 365 -27 b 1063 69 821 -27 947 19 l 1133 472 l 672 472 l 651 353 l 973 353 l 939 157 b 648 101 848 120 777 101 b 332 375 448 101 332 183 b 778 794 332 643 527 794 b 1117 726 874 794 988 772 l 1169 850 b 790 922 1060 890 944 922 b 181 360 481 922 181 751 z "},"H":{"ha":1276,"x_min":0,"x_max":0,"o":"m 313 896 l 158 0 l 301 0 l 367 381 l 1041 381 l 976 0 l 1117 0 l 1272 896 l 1131 896 l 1063 503 l 388 503 l 456 896 z "},"Ĥ":{"ha":1276,"x_min":0,"x_max":0,"o":"m 583 1065 l 658 985 l 841 1131 l 975 985 l 1062 1060 l 903 1219 l 794 1219 z m 158 0 l 301 0 l 367 381 l 1041 381 l 976 0 l 1117 0 l 1272 896 l 1131 896 l 1063 503 l 388 503 l 456 896 l 313 896 z "},"I":{"ha":459,"x_min":0,"x_max":0,"o":"m 313 896 l 158 0 l 301 0 l 456 896 z "},"Ì":{"ha":459,"x_min":0,"x_max":0,"o":"m 313 896 l 158 0 l 301 0 l 456 896 z m 154 1136 l 407 990 l 474 1084 l 227 1244 z "},"Í":{"ha":459,"x_min":0,"x_max":0,"o":"m 313 896 l 158 0 l 301 0 l 456 896 z m 339 1081 l 388 983 l 708 1131 l 655 1240 z "},"Î":{"ha":459,"x_min":0,"x_max":0,"o":"m 313 896 l 158 0 l 301 0 l 456 896 z m 153 1065 l 228 985 l 412 1131 l 546 985 l 633 1060 l 474 1219 l 365 1219 z "},"Ï":{"ha":459,"x_min":0,"x_max":0,"o":"m 313 896 l 158 0 l 301 0 l 456 896 z m 185 1013 l 334 1013 l 359 1155 l 210 1155 z m 460 1013 l 610 1013 l 634 1155 l 485 1155 z "},"Ĩ":{"ha":459,"x_min":0,"x_max":0,"o":"m 313 896 l 158 0 l 301 0 l 456 896 z m 141 1055 l 228 1011 b 321 1085 256 1056 282 1085 b 399 1047 348 1085 367 1069 b 512 1008 428 1027 461 1008 b 703 1149 580 1008 648 1040 l 614 1192 b 526 1113 583 1134 556 1113 b 456 1143 501 1113 483 1125 b 329 1192 417 1168 381 1192 b 141 1055 254 1192 186 1151 z "},"Ī":{"ha":459,"x_min":0,"x_max":0,"o":"m 313 896 l 158 0 l 301 0 l 456 896 z m 181 1029 l 628 1029 l 647 1137 l 200 1137 z "},"Ĭ":{"ha":459,"x_min":0,"x_max":0,"o":"m 313 896 l 158 0 l 301 0 l 456 896 z m 210 1169 b 406 990 210 1061 273 990 b 671 1195 554 990 640 1078 l 557 1210 b 417 1090 522 1108 469 1090 b 321 1204 366 1090 321 1108 l 321 1210 l 210 1195 b 210 1169 210 1185 210 1177 z "},"Į":{"ha":459,"x_min":0,"x_max":0,"o":"m 210 -290 b 375 -261 274 -290 333 -275 l 355 -170 b 227 -194 309 -185 272 -194 b 169 -143 192 -194 169 -181 b 301 0 169 -102 197 -53 l 456 896 l 313 896 l 160 8 b 49 -162 83 -40 49 -96 b 210 -290 49 -243 110 -290 z "},"İ":{"ha":459,"x_min":0,"x_max":0,"o":"m 313 896 l 158 0 l 301 0 l 456 896 z m 330 1013 l 478 1013 l 503 1155 l 355 1155 z "},"J":{"ha":912,"x_min":0,"x_max":0,"o":"m 126 181 l 67 65 b 391 -27 148 10 265 -27 b 829 317 586 -27 779 28 l 929 896 l 788 896 l 690 331 b 400 100 660 156 540 100 b 126 181 289 100 197 139 z "},"Ĵ":{"ha":912,"x_min":0,"x_max":0,"o":"m 627 1065 l 702 985 l 885 1131 l 1019 985 l 1106 1060 l 948 1219 l 839 1219 z m 67 65 b 391 -27 148 10 265 -27 b 829 317 586 -27 779 28 l 929 896 l 788 896 l 690 331 b 400 100 660 156 540 100 b 126 181 289 100 197 139 z "},"K":{"ha":1167,"x_min":0,"x_max":0,"o":"m 716 445 l 1011 -27 l 1128 48 l 824 526 l 1226 828 l 1151 926 l 358 330 l 456 896 l 313 896 l 158 0 l 301 0 l 327 156 z "},"Ķ":{"ha":1167,"x_min":0,"x_max":0,"o":"m 551 -399 l 666 -235 l 691 -90 l 542 -90 l 518 -230 l 567 -230 l 494 -367 z m 158 0 l 301 0 l 327 156 l 716 445 l 1011 -27 l 1128 48 l 824 526 l 1226 828 l 1151 926 l 358 330 l 456 896 l 313 896 z "},"L":{"ha":946,"x_min":0,"x_max":0,"o":"m 313 896 l 158 0 l 922 0 l 944 123 l 322 123 l 456 896 z "},"Ĺ":{"ha":946,"x_min":0,"x_max":0,"o":"m 336 1081 l 385 983 l 705 1131 l 652 1240 z m 158 0 l 922 0 l 944 123 l 322 123 l 456 896 l 313 896 z "},"Ļ":{"ha":946,"x_min":0,"x_max":0,"o":"m 472 -399 l 588 -235 l 613 -90 l 464 -90 l 440 -230 l 489 -230 l 416 -367 z m 158 0 l 922 0 l 944 123 l 322 123 l 456 896 l 313 896 z "},"Ľ":{"ha":946,"x_min":0,"x_max":0,"o":"m 734 910 l 649 616 l 767 591 l 868 883 z m 158 0 l 922 0 l 944 123 l 322 123 l 456 896 l 313 896 z "},"M":{"ha":1441,"x_min":0,"x_max":0,"o":"m 313 896 l 158 0 l 294 0 l 426 760 l 656 99 l 835 99 l 1277 758 l 1147 0 l 1283 0 l 1438 896 l 1219 896 l 760 208 l 530 896 z "},"N":{"ha":1220,"x_min":0,"x_max":0,"o":"m 313 896 l 158 0 l 297 0 l 422 726 l 896 0 l 1062 0 l 1217 896 l 1078 896 l 951 158 l 478 896 z "},"Ñ":{"ha":1220,"x_min":0,"x_max":0,"o":"m 313 896 l 158 0 l 297 0 l 422 726 l 896 0 l 1062 0 l 1217 896 l 1078 896 l 951 158 l 478 896 z m 530 1055 l 617 1011 b 710 1085 645 1056 671 1085 b 788 1047 737 1085 756 1069 b 901 1008 817 1027 850 1008 b 1092 1149 969 1008 1037 1040 l 1003 1192 b 915 1113 972 1134 945 1113 b 844 1143 890 1113 872 1125 b 718 1192 806 1168 770 1192 b 530 1055 643 1192 575 1151 z "},"Ń":{"ha":1220,"x_min":0,"x_max":0,"o":"m 727 1081 l 776 983 l 1096 1131 l 1043 1240 z m 158 0 l 297 0 l 422 726 l 896 0 l 1062 0 l 1217 896 l 1078 896 l 951 158 l 478 896 l 313 896 z "},"Ņ":{"ha":1220,"x_min":0,"x_max":0,"o":"m 551 -399 l 667 -235 l 692 -90 l 543 -90 l 519 -230 l 568 -230 l 495 -367 z m 158 0 l 297 0 l 422 726 l 896 0 l 1062 0 l 1217 896 l 1078 896 l 951 158 l 478 896 l 313 896 z "},"Ň":{"ha":1220,"x_min":0,"x_max":0,"o":"m 594 1173 l 753 1018 l 859 1018 l 1067 1174 l 994 1250 l 814 1106 l 683 1249 z m 158 0 l 297 0 l 422 726 l 896 0 l 1062 0 l 1217 896 l 1078 896 l 951 158 l 478 896 l 313 896 z "},"O":{"ha":1301,"x_min":0,"x_max":0,"o":"m 793 922 b 183 372 455 922 183 723 b 655 -27 183 107 385 -27 b 1272 512 1002 -27 1272 167 b 793 922 1272 789 1051 922 z m 333 385 b 785 794 333 633 509 794 b 1122 497 1008 794 1122 674 b 668 101 1122 251 931 101 b 333 385 463 101 333 197 z "},"Ò":{"ha":1301,"x_min":0,"x_max":0,"o":"m 793 922 b 183 372 455 922 183 723 b 655 -27 183 107 385 -27 b 1272 512 1002 -27 1272 167 b 793 922 1272 789 1051 922 z m 333 385 b 785 794 333 633 509 794 b 1122 497 1008 794 1122 674 b 668 101 1122 251 931 101 b 333 385 463 101 333 197 z m 631 1136 l 884 990 l 951 1084 l 704 1244 z "},"Ó":{"ha":1301,"x_min":0,"x_max":0,"o":"m 733 1081 l 783 983 l 1102 1131 l 1049 1240 z m 183 372 b 655 -27 183 107 385 -27 b 1272 512 1002 -27 1272 167 b 793 922 1272 789 1051 922 b 183 372 455 922 183 723 z m 333 385 b 785 794 333 633 509 794 b 1122 497 1008 794 1122 674 b 668 101 1122 251 931 101 b 333 385 463 101 333 197 z "},"Ô":{"ha":1301,"x_min":0,"x_max":0,"o":"m 575 1065 l 650 985 l 833 1131 l 967 985 l 1054 1060 l 896 1219 l 787 1219 z m 183 372 b 655 -27 183 107 385 -27 b 1272 512 1002 -27 1272 167 b 793 922 1272 789 1051 922 b 183 372 455 922 183 723 z m 333 385 b 785 794 333 633 509 794 b 1122 497 1008 794 1122 674 b 668 101 1122 251 931 101 b 333 385 463 101 333 197 z "},"Õ":{"ha":1301,"x_min":0,"x_max":0,"o":"m 793 922 b 183 372 455 922 183 723 b 655 -27 183 107 385 -27 b 1272 512 1002 -27 1272 167 b 793 922 1272 789 1051 922 z m 333 385 b 785 794 333 633 509 794 b 1122 497 1008 794 1122 674 b 668 101 1122 251 931 101 b 333 385 463 101 333 197 z m 556 1055 l 643 1011 b 735 1085 671 1056 697 1085 b 814 1047 763 1085 781 1069 b 926 1008 843 1027 876 1008 b 1117 1149 994 1008 1063 1040 l 1028 1192 b 940 1113 997 1134 971 1113 b 870 1143 915 1113 897 1125 b 744 1192 832 1168 796 1192 b 556 1055 669 1192 601 1151 z "},"Ö":{"ha":1301,"x_min":0,"x_max":0,"o":"m 618 1155 l 594 1013 l 742 1013 l 767 1155 z m 183 372 b 655 -27 183 107 385 -27 b 1272 512 1002 -27 1272 167 b 793 922 1272 789 1051 922 b 183 372 455 922 183 723 z m 333 385 b 785 794 333 633 509 794 b 1122 497 1008 794 1122 674 b 668 101 1122 251 931 101 b 333 385 463 101 333 197 z m 869 1013 l 1018 1013 l 1042 1155 l 894 1155 z "},"Ō":{"ha":1301,"x_min":0,"x_max":0,"o":"m 619 1137 l 601 1029 l 1048 1029 l 1067 1137 z m 183 372 b 655 -27 183 107 385 -27 b 1272 512 1002 -27 1272 167 b 793 922 1272 789 1051 922 b 183 372 455 922 183 723 z m 333 385 b 785 794 333 633 509 794 b 1122 497 1008 794 1122 674 b 668 101 1122 251 931 101 b 333 385 463 101 333 197 z "},"Ŏ":{"ha":1301,"x_min":0,"x_max":0,"o":"m 793 922 b 183 372 455 922 183 723 b 655 -27 183 107 385 -27 b 1272 512 1002 -27 1272 167 b 793 922 1272 789 1051 922 z m 333 385 b 785 794 333 633 509 794 b 1122 497 1008 794 1122 674 b 668 101 1122 251 931 101 b 333 385 463 101 333 197 z m 631 1169 b 827 990 631 1061 694 990 b 1092 1195 976 990 1061 1078 l 978 1210 b 838 1090 944 1108 890 1090 b 742 1204 788 1090 742 1108 l 742 1210 l 632 1195 b 631 1169 631 1185 631 1177 z "},"Ő":{"ha":1301,"x_min":0,"x_max":0,"o":"m 601 1058 l 680 983 l 936 1199 l 853 1287 z m 183 372 b 655 -27 183 107 385 -27 b 1272 512 1002 -27 1272 167 b 793 922 1272 789 1051 922 b 183 372 455 922 183 723 z m 333 385 b 785 794 333 633 509 794 b 1122 497 1008 794 1122 674 b 668 101 1122 251 931 101 b 333 385 463 101 333 197 z m 900 1072 l 969 989 l 1243 1183 l 1170 1278 z "},"P":{"ha":1117,"x_min":0,"x_max":0,"o":"m 824 896 l 313 896 l 158 0 l 301 0 l 340 232 l 692 232 b 1156 615 1008 232 1156 356 b 824 896 1156 804 1039 896 z m 362 354 l 435 774 l 797 774 b 1006 594 944 774 1006 717 b 710 354 1006 447 913 354 z "},"Q":{"ha":1301,"x_min":0,"x_max":0,"o":"m 793 922 b 183 372 455 922 183 723 b 655 -27 183 107 385 -27 b 816 -12 711 -27 765 -22 l 884 -187 l 998 -139 l 935 22 b 1272 512 1138 100 1272 269 b 793 922 1272 789 1051 922 z m 333 385 b 785 794 333 633 509 794 b 1122 497 1008 794 1122 674 b 889 142 1122 327 1031 203 l 808 353 l 694 306 l 769 108 b 668 101 738 103 703 101 b 333 385 463 101 333 197 z "},"R":{"ha":1181,"x_min":0,"x_max":0,"o":"m 719 271 b 844 280 763 271 806 274 l 928 -26 l 1060 12 l 973 314 b 1173 633 1101 367 1173 473 b 829 896 1173 808 1060 896 l 313 896 l 158 0 l 301 0 l 347 271 z m 368 393 l 435 774 l 814 774 b 1024 616 958 774 1024 731 b 735 393 1024 485 942 393 z "},"Ŕ":{"ha":1181,"x_min":0,"x_max":0,"o":"m 635 1081 l 685 983 l 1004 1131 l 951 1240 z m 158 0 l 301 0 l 347 271 l 719 271 b 844 280 763 271 806 274 l 928 -26 l 1060 12 l 973 314 b 1173 633 1101 367 1173 473 b 829 896 1173 808 1060 896 l 313 896 z m 368 393 l 435 774 l 814 774 b 1024 616 958 774 1024 731 b 735 393 1024 485 942 393 z "},"Ŗ":{"ha":1181,"x_min":0,"x_max":0,"o":"m 535 -399 l 651 -235 l 676 -90 l 527 -90 l 503 -230 l 552 -230 l 479 -367 z m 158 0 l 301 0 l 347 271 l 719 271 b 844 280 763 271 806 274 l 928 -26 l 1060 12 l 973 314 b 1173 633 1101 367 1173 473 b 829 896 1173 808 1060 896 l 313 896 z m 368 393 l 435 774 l 814 774 b 1024 616 958 774 1024 731 b 735 393 1024 485 942 393 z "},"Ř":{"ha":1181,"x_min":0,"x_max":0,"o":"m 536 1173 l 694 1018 l 801 1018 l 1009 1174 l 936 1250 l 756 1106 l 624 1249 z m 158 0 l 301 0 l 347 271 l 719 271 b 844 280 763 271 806 274 l 928 -26 l 1060 12 l 973 314 b 1173 633 1101 367 1173 473 b 829 896 1173 808 1060 896 l 313 896 z m 368 393 l 435 774 l 814 774 b 1024 616 958 774 1024 731 b 735 393 1024 485 942 393 z "},"S":{"ha":1080,"x_min":0,"x_max":0,"o":"m 518 -27 b 1031 306 808 -27 1031 46 b 652 528 1031 498 831 516 b 372 639 506 538 372 545 b 683 798 372 742 469 798 b 1011 744 809 798 911 774 l 1049 863 b 686 921 967 891 840 921 b 228 623 441 921 228 842 b 593 401 228 433 411 413 b 891 278 747 391 891 387 b 533 99 891 154 735 99 b 165 178 383 99 246 141 l 118 55 b 518 -27 199 15 338 -27 z "},"Ś":{"ha":1080,"x_min":0,"x_max":0,"o":"m 603 1081 l 653 983 l 972 1131 l 919 1240 z m 118 55 b 518 -27 199 15 338 -27 b 1031 306 808 -27 1031 46 b 652 528 1031 498 831 516 b 372 639 506 538 372 545 b 683 798 372 742 469 798 b 1011 744 809 798 911 774 l 1049 863 b 686 921 967 891 840 921 b 228 623 441 921 228 842 b 593 401 228 433 411 413 b 891 278 747 391 891 387 b 533 99 891 154 735 99 b 165 178 383 99 246 141 z "},"Ŝ":{"ha":1080,"x_min":0,"x_max":0,"o":"m 483 1065 l 558 985 l 742 1131 l 876 985 l 963 1060 l 804 1219 l 695 1219 z m 118 55 b 518 -27 199 15 338 -27 b 1031 306 808 -27 1031 46 b 652 528 1031 498 831 516 b 372 639 506 538 372 545 b 683 798 372 742 469 798 b 1011 744 809 798 911 774 l 1049 863 b 686 921 967 891 840 921 b 228 623 441 921 228 842 b 593 401 228 433 411 413 b 891 278 747 391 891 387 b 533 99 891 154 735 99 b 165 178 383 99 246 141 z "},"Ş":{"ha":1080,"x_min":0,"x_max":0,"o":"m 363 -174 l 331 -264 b 481 -290 360 -276 417 -290 b 699 -117 631 -290 699 -228 b 665 -19 699 -81 688 -48 b 1031 306 880 5 1031 92 b 652 528 1031 498 831 516 b 372 639 506 538 372 545 b 683 798 372 742 469 798 b 1011 744 809 798 911 774 l 1049 863 b 686 921 967 891 840 921 b 228 623 441 921 228 842 b 593 401 228 433 411 413 b 891 278 747 391 891 387 b 533 99 891 154 735 99 b 165 178 383 99 246 141 l 118 55 b 509 -27 198 15 333 -26 b 583 -120 567 -58 583 -92 b 489 -195 583 -167 549 -195 b 363 -174 446 -195 398 -185 z "},"Š":{"ha":1080,"x_min":0,"x_max":0,"o":"m 488 1173 l 646 1018 l 752 1018 l 960 1174 l 888 1250 l 707 1106 l 576 1249 z m 118 55 b 518 -27 199 15 338 -27 b 1031 306 808 -27 1031 46 b 652 528 1031 498 831 516 b 372 639 506 538 372 545 b 683 798 372 742 469 798 b 1011 744 809 798 911 774 l 1049 863 b 686 921 967 891 840 921 b 228 623 441 921 228 842 b 593 401 228 433 411 413 b 891 278 747 391 891 387 b 533 99 891 154 735 99 b 165 178 383 99 246 141 z "},"Ș":{"ha":1080,"x_min":0,"x_max":0,"o":"m 494 -399 l 610 -235 l 635 -90 l 486 -90 l 462 -230 l 511 -230 l 438 -367 z m 118 55 b 518 -27 199 15 338 -27 b 1031 306 808 -27 1031 46 b 652 528 1031 498 831 516 b 372 639 506 538 372 545 b 683 798 372 742 469 798 b 1011 744 809 798 911 774 l 1049 863 b 686 921 967 891 840 921 b 228 623 441 921 228 842 b 593 401 228 433 411 413 b 891 278 747 391 891 387 b 533 99 891 154 735 99 b 165 178 383 99 246 141 z "},"T":{"ha":999,"x_min":0,"x_max":0,"o":"m 551 773 l 417 0 l 559 0 l 692 773 l 1112 773 l 1133 896 l 176 896 l 155 773 z "},"Ţ":{"ha":999,"x_min":0,"x_max":0,"o":"m 411 -399 l 526 -235 l 551 -90 l 403 -90 l 378 -230 l 428 -230 l 355 -367 z m 155 773 l 551 773 l 417 0 l 559 0 l 692 773 l 1112 773 l 1133 896 l 176 896 z "},"Ť":{"ha":999,"x_min":0,"x_max":0,"o":"m 442 1173 l 600 1018 l 706 1018 l 915 1174 l 842 1250 l 661 1106 l 530 1249 z m 155 773 l 551 773 l 417 0 l 559 0 l 692 773 l 1112 773 l 1133 896 l 176 896 z "},"U":{"ha":1176,"x_min":0,"x_max":0,"o":"m 209 408 b 199 300 202 369 199 333 b 585 -27 199 19 430 -27 b 1108 409 801 -27 1045 42 l 1192 896 l 1051 896 l 967 415 b 593 101 926 174 774 101 b 343 319 451 101 343 148 b 352 415 343 348 346 379 l 435 896 l 293 896 z "},"Ù":{"ha":1176,"x_min":0,"x_max":0,"o":"m 209 408 b 199 300 202 369 199 333 b 585 -27 199 19 430 -27 b 1108 409 801 -27 1045 42 l 1192 896 l 1051 896 l 967 415 b 593 101 926 174 774 101 b 343 319 451 101 343 148 b 352 415 343 348 346 379 l 435 896 l 293 896 z m 526 1136 l 778 990 l 845 1084 l 599 1244 z "},"Ú":{"ha":1176,"x_min":0,"x_max":0,"o":"m 679 1081 l 728 983 l 1048 1131 l 995 1240 z m 199 300 b 585 -27 199 19 430 -27 b 1108 409 801 -27 1045 42 l 1192 896 l 1051 896 l 967 415 b 593 101 926 174 774 101 b 343 319 451 101 343 148 b 352 415 343 348 346 379 l 435 896 l 293 896 l 209 408 b 199 300 202 369 199 333 z "},"Û":{"ha":1176,"x_min":0,"x_max":0,"o":"m 529 1065 l 604 985 l 788 1131 l 922 985 l 1008 1060 l 850 1219 l 741 1219 z m 199 300 b 585 -27 199 19 430 -27 b 1108 409 801 -27 1045 42 l 1192 896 l 1051 896 l 967 415 b 593 101 926 174 774 101 b 343 319 451 101 343 148 b 352 415 343 348 346 379 l 435 896 l 293 896 l 209 408 b 199 300 202 369 199 333 z "},"Ü":{"ha":1176,"x_min":0,"x_max":0,"o":"m 574 1155 l 549 1013 l 698 1013 l 723 1155 z m 199 300 b 585 -27 199 19 430 -27 b 1108 409 801 -27 1045 42 l 1192 896 l 1051 896 l 967 415 b 593 101 926 174 774 101 b 343 319 451 101 343 148 b 352 415 343 348 346 379 l 435 896 l 293 896 l 209 408 b 199 300 202 369 199 333 z m 824 1013 l 974 1013 l 998 1155 l 849 1155 z "},"Ũ":{"ha":1176,"x_min":0,"x_max":0,"o":"m 209 408 b 199 300 202 369 199 333 b 585 -27 199 19 430 -27 b 1108 409 801 -27 1045 42 l 1192 896 l 1051 896 l 967 415 b 593 101 926 174 774 101 b 343 319 451 101 343 148 b 352 415 343 348 346 379 l 435 896 l 293 896 z m 498 1055 l 585 1011 b 678 1085 613 1056 639 1085 b 756 1047 705 1085 724 1069 b 869 1008 785 1027 818 1008 b 1060 1149 937 1008 1005 1040 l 971 1192 b 883 1113 940 1134 913 1113 b 813 1143 858 1113 840 1125 b 686 1192 774 1168 738 1192 b 498 1055 611 1192 543 1151 z "},"Ū":{"ha":1176,"x_min":0,"x_max":0,"o":"m 209 408 b 199 300 202 369 199 333 b 585 -27 199 19 430 -27 b 1108 409 801 -27 1045 42 l 1192 896 l 1051 896 l 967 415 b 593 101 926 174 774 101 b 343 319 451 101 343 148 b 352 415 343 348 346 379 l 435 896 l 293 896 z m 537 1029 l 984 1029 l 1003 1137 l 556 1137 z "},"Ŭ":{"ha":1176,"x_min":0,"x_max":0,"o":"m 209 408 b 199 300 202 369 199 333 b 585 -27 199 19 430 -27 b 1108 409 801 -27 1045 42 l 1192 896 l 1051 896 l 967 415 b 593 101 926 174 774 101 b 343 319 451 101 343 148 b 352 415 343 348 346 379 l 435 896 l 293 896 z m 569 1169 b 765 990 569 1061 633 990 b 1031 1195 914 990 999 1078 l 917 1210 b 776 1090 882 1108 828 1090 b 681 1204 726 1090 681 1108 l 681 1210 l 570 1195 b 569 1169 569 1185 569 1177 z "},"Ů":{"ha":1176,"x_min":0,"x_max":0,"o":"m 770 969 b 974 1140 888 969 974 1044 b 813 1276 973 1222 910 1276 b 610 1103 694 1276 610 1199 b 770 969 610 1025 667 969 z m 199 300 b 585 -27 199 19 430 -27 b 1108 409 801 -27 1045 42 l 1192 896 l 1051 896 l 967 415 b 593 101 926 174 774 101 b 343 319 451 101 343 148 b 352 415 343 348 346 379 l 435 896 l 293 896 l 209 408 b 199 300 202 369 199 333 z m 710 1114 b 804 1196 710 1158 748 1196 b 873 1133 853 1196 873 1167 b 779 1050 873 1087 833 1050 b 710 1114 730 1050 710 1078 z "},"Ű":{"ha":1176,"x_min":0,"x_max":0,"o":"m 209 408 b 199 300 202 369 199 333 b 585 -27 199 19 430 -27 b 1108 409 801 -27 1045 42 l 1192 896 l 1051 896 l 967 415 b 593 101 926 174 774 101 b 343 319 451 101 343 148 b 352 415 343 348 346 379 l 435 896 l 293 896 z m 549 1058 l 628 983 l 884 1199 l 801 1287 z m 848 1072 l 917 989 l 1191 1183 l 1118 1278 z "},"Ų":{"ha":1176,"x_min":0,"x_max":0,"o":"m 209 408 b 199 300 202 369 199 333 b 499 -22 199 68 356 -3 b 427 -162 450 -62 427 -108 b 588 -290 427 -243 488 -290 b 753 -261 651 -290 711 -275 l 733 -170 b 605 -194 687 -185 649 -194 b 547 -143 567 -194 547 -181 b 670 -23 547 -108 574 -68 b 1108 409 862 -4 1053 90 l 1192 896 l 1051 896 l 967 415 b 593 101 926 174 774 101 b 343 319 451 101 343 148 b 352 415 343 348 346 379 l 435 896 l 293 896 z "},"V":{"ha":1090,"x_min":0,"x_max":0,"o":"m 183 872 l 465 0 l 649 0 l 1208 851 l 1089 919 l 572 121 l 317 919 z "},"W":{"ha":1517,"x_min":0,"x_max":0,"o":"m 215 896 l 357 0 l 544 0 l 902 770 l 1004 0 l 1195 0 l 1611 867 l 1489 920 l 1114 128 l 1015 896 l 822 896 l 468 133 l 351 919 z "},"Ŵ":{"ha":1517,"x_min":0,"x_max":0,"o":"m 681 1065 l 756 985 l 940 1131 l 1074 985 l 1160 1060 l 1002 1219 l 893 1219 z m 215 896 l 357 0 l 544 0 l 902 770 l 1004 0 l 1195 0 l 1611 867 l 1489 920 l 1114 128 l 1015 896 l 822 896 l 468 133 l 351 919 z "},"Ẁ":{"ha":1517,"x_min":0,"x_max":0,"o":"m 215 896 l 357 0 l 544 0 l 902 770 l 1004 0 l 1195 0 l 1611 867 l 1489 920 l 1114 128 l 1015 896 l 822 896 l 468 133 l 351 919 z m 719 1136 l 972 990 l 1039 1084 l 792 1244 z "},"Ẃ":{"ha":1517,"x_min":0,"x_max":0,"o":"m 851 1081 l 900 983 l 1219 1131 l 1167 1240 z m 215 896 l 357 0 l 544 0 l 902 770 l 1004 0 l 1195 0 l 1611 867 l 1489 920 l 1114 128 l 1015 896 l 822 896 l 468 133 l 351 919 z "},"Ẅ":{"ha":1517,"x_min":0,"x_max":0,"o":"m 735 1155 l 711 1013 l 860 1013 l 885 1155 z m 215 896 l 357 0 l 544 0 l 902 770 l 1004 0 l 1195 0 l 1611 867 l 1489 920 l 1114 128 l 1015 896 l 822 896 l 468 133 l 351 919 z m 986 1013 l 1135 1013 l 1160 1155 l 1011 1155 z "},"X":{"ha":1103,"x_min":0,"x_max":0,"o":"m 75 69 l 163 -28 l 624 371 l 958 -25 l 1065 61 l 728 456 l 1160 822 l 1076 917 l 648 551 l 344 915 l 235 825 l 540 464 z "},"Y":{"ha":1106,"x_min":0,"x_max":0,"o":"m 545 259 l 500 0 l 642 0 l 687 260 l 1219 825 l 1126 916 l 626 384 l 296 917 l 180 845 z "},"Ý":{"ha":1106,"x_min":0,"x_max":0,"o":"m 545 259 l 500 0 l 642 0 l 687 260 l 1219 825 l 1126 916 l 626 384 l 296 917 l 180 845 z m 619 1081 l 669 983 l 988 1131 l 935 1240 z "},"Ŷ":{"ha":1106,"x_min":0,"x_max":0,"o":"m 545 259 l 500 0 l 642 0 l 687 260 l 1219 825 l 1126 916 l 626 384 l 296 917 l 180 845 z m 483 1065 l 558 985 l 742 1131 l 876 985 l 963 1060 l 804 1219 l 695 1219 z "},"Ÿ":{"ha":1106,"x_min":0,"x_max":0,"o":"m 545 259 l 500 0 l 642 0 l 687 260 l 1219 825 l 1126 916 l 626 384 l 296 917 l 180 845 z m 498 1013 l 647 1013 l 672 1155 l 522 1155 z m 773 1013 l 922 1013 l 947 1155 l 798 1155 z "},"Z":{"ha":1033,"x_min":0,"x_max":0,"o":"m 92 145 l 67 0 l 976 0 l 997 122 l 263 122 l 1074 744 l 1101 896 l 265 896 l 244 774 l 911 774 z "},"Ź":{"ha":1033,"x_min":0,"x_max":0,"o":"m 592 1081 l 642 983 l 961 1131 l 908 1240 z m 67 0 l 976 0 l 997 122 l 263 122 l 1074 744 l 1101 896 l 265 896 l 244 774 l 911 774 l 92 145 z "},"Ż":{"ha":1033,"x_min":0,"x_max":0,"o":"m 92 145 l 67 0 l 976 0 l 997 122 l 263 122 l 1074 744 l 1101 896 l 265 896 l 244 774 l 911 774 z m 647 1013 l 795 1013 l 820 1155 l 672 1155 z "},"Ž":{"ha":1033,"x_min":0,"x_max":0,"o":"m 506 1173 l 664 1018 l 770 1018 l 978 1174 l 906 1250 l 725 1106 l 594 1249 z m 67 0 l 976 0 l 997 122 l 263 122 l 1074 744 l 1101 896 l 265 896 l 244 774 l 911 774 l 92 145 z "},"Æ":{"ha":1663,"x_min":0,"x_max":0,"o":"m 53 60 l 153 -27 l 362 195 l 808 195 l 774 0 l 1585 -1 l 1606 119 l 935 119 l 983 397 l 1540 397 l 1561 513 l 1003 513 l 1049 778 l 1705 778 l 1726 896 l 847 896 z m 467 308 l 909 780 l 828 308 z "},"Ǽ":{"ha":1663,"x_min":0,"x_max":0,"o":"m 901 1081 l 950 983 l 1269 1131 l 1217 1240 z m 53 60 l 153 -27 l 362 195 l 808 195 l 774 0 l 1585 -1 l 1606 119 l 935 119 l 983 397 l 1540 397 l 1561 513 l 1003 513 l 1049 778 l 1705 778 l 1726 896 l 847 896 z m 467 308 l 909 780 l 828 308 z "},"Ð":{"ha":1228,"x_min":0,"x_max":0,"o":"m 113 380 l 251 380 l 185 0 l 584 0 b 1198 526 994 0 1198 172 b 738 896 1198 772 1070 896 l 340 896 l 269 490 l 131 490 z m 348 122 l 392 380 l 657 380 l 676 490 l 412 490 l 461 774 l 726 774 b 1047 511 963 774 1047 683 b 601 122 1047 301 936 122 z "},"Ø":{"ha":1301,"x_min":0,"x_max":0,"o":"m 144 57 l 215 -30 l 332 62 b 655 -27 415 3 528 -27 b 1272 512 1002 -27 1272 167 b 1202 746 1272 606 1247 684 l 1310 831 l 1238 919 l 1122 826 b 793 922 1035 890 918 922 b 183 372 455 922 183 723 b 251 142 183 279 208 202 z m 333 385 b 785 794 333 633 509 794 b 1006 736 878 794 951 773 l 370 235 b 333 385 346 276 333 326 z m 449 154 l 1084 653 b 1122 497 1109 608 1122 556 b 668 101 1122 251 931 101 b 449 154 580 101 506 119 z "},"Ǿ":{"ha":1301,"x_min":0,"x_max":0,"o":"m 188 19 l 293 94 b 655 -27 378 14 506 -27 b 1272 512 1002 -27 1272 167 b 1175 778 1272 624 1235 713 l 1283 870 l 1167 787 b 793 922 1078 877 942 922 b 183 372 455 922 183 723 b 285 101 183 257 221 167 z m 333 385 b 785 794 333 633 509 794 b 1048 701 904 794 992 760 l 686 440 l 398 197 b 333 385 356 243 333 306 z m 413 181 l 785 449 l 1063 684 b 1122 497 1102 634 1122 571 b 668 101 1122 251 931 101 b 413 181 559 101 472 128 z m 722 1081 l 771 983 l 1090 1131 l 1038 1240 z "},"Þ":{"ha":1133,"x_min":0,"x_max":0,"o":"m 309 896 l 154 0 l 297 0 l 322 147 l 678 147 b 1117 514 981 147 1117 263 b 800 776 1117 685 997 776 l 431 776 l 452 896 z m 343 267 l 410 656 l 787 656 b 971 491 907 656 971 600 b 697 267 971 372 906 267 z "},"Đ":{"ha":1228,"x_min":0,"x_max":0,"o":"m 113 380 l 251 380 l 185 0 l 584 0 b 1198 526 994 0 1198 172 b 738 896 1198 772 1070 896 l 340 896 l 269 490 l 131 490 z m 348 122 l 392 380 l 657 380 l 676 490 l 412 490 l 461 774 l 726 774 b 1047 511 963 774 1047 683 b 601 122 1047 301 936 122 z "},"Ħ":{"ha":1276,"x_min":0,"x_max":0,"o":"m 179 749 l 161 642 l 269 642 l 158 0 l 301 0 l 367 381 l 1041 381 l 976 0 l 1117 0 l 1228 642 l 1324 642 l 1342 749 l 1247 749 l 1272 896 l 1131 896 l 1105 749 l 430 749 l 456 896 l 313 896 l 288 749 z m 388 503 l 412 642 l 1087 642 l 1063 503 z "},"Ĳ":{"ha":1371,"x_min":0,"x_max":0,"o":"m 313 896 l 158 0 l 301 0 l 456 896 z m 526 65 b 850 -27 607 10 724 -27 b 1288 317 1045 -27 1238 28 l 1388 896 l 1247 896 l 1149 331 b 859 100 1119 156 999 100 b 585 181 748 100 656 139 z "},"Ŀ":{"ha":946,"x_min":0,"x_max":0,"o":"m 313 896 l 158 0 l 922 0 l 944 123 l 322 123 l 456 896 z m 647 424 l 801 424 l 830 587 l 675 587 z "},"Ł":{"ha":946,"x_min":0,"x_max":0,"o":"m 69 398 l 108 298 l 218 345 l 158 0 l 922 0 l 944 123 l 322 123 l 372 411 l 653 533 l 612 632 l 394 538 l 456 896 l 313 896 l 240 472 z "},"Ŋ":{"ha":1238,"x_min":0,"x_max":0,"o":"m 705 -162 l 716 -286 b 1076 -19 918 -267 1047 -186 l 1234 896 l 1095 896 l 974 197 l 485 896 l 313 896 l 158 0 l 298 0 l 424 731 l 940 6 b 705 -162 910 -122 796 -152 z "},"Œ":{"ha":1671,"x_min":0,"x_max":0,"o":"m 790 896 b 183 363 438 896 183 724 b 633 0 183 122 352 0 l 1578 0 l 1599 120 l 951 120 l 999 395 l 1534 395 l 1555 515 l 1019 515 l 1065 775 l 1698 775 l 1719 896 z m 335 378 b 763 774 335 607 471 774 l 921 774 l 808 121 l 642 121 b 335 378 422 121 335 216 z "},"Ŧ":{"ha":999,"x_min":0,"x_max":0,"o":"m 282 484 l 265 382 l 483 382 l 417 0 l 559 0 l 625 382 l 821 382 l 839 484 l 642 484 l 692 773 l 1112 773 l 1133 896 l 176 896 l 155 773 l 551 773 l 501 484 z "},"Ω":{"ha":1279,"x_min":0,"x_max":0,"o":"m 361 108 l 115 108 l 97 0 l 531 0 l 550 108 b 360 417 432 172 360 280 b 778 808 360 660 558 808 b 1079 531 951 808 1079 716 b 763 108 1079 344 949 194 l 744 0 l 1183 0 l 1202 108 l 965 108 b 1230 551 1119 201 1230 354 b 792 928 1230 797 1033 928 b 213 415 490 928 213 743 b 361 108 213 285 268 182 z "},"a":{"ha":947,"x_min":0,"x_max":0,"o":"m 612 428 b 126 163 284 428 126 339 b 361 -21 126 29 233 -21 b 714 88 492 -21 607 21 l 719 0 l 832 0 l 905 422 b 910 485 909 444 910 465 b 602 698 910 644 782 698 b 263 643 461 698 342 670 l 291 531 b 583 581 354 553 465 581 b 771 460 713 581 771 546 b 767 420 771 451 768 429 b 612 428 717 425 663 428 z m 273 176 b 603 326 273 256 350 326 b 750 320 648 326 701 324 l 731 211 b 390 94 622 142 498 94 b 273 176 309 94 273 126 z "},"à":{"ha":947,"x_min":0,"x_max":0,"o":"m 612 428 b 126 163 284 428 126 339 b 361 -21 126 29 233 -21 b 714 88 492 -21 607 21 l 719 0 l 832 0 l 905 422 b 910 485 909 444 910 465 b 602 698 910 644 782 698 b 263 643 461 698 342 670 l 291 531 b 583 581 354 553 465 581 b 771 460 713 581 771 546 b 767 420 771 451 768 429 b 612 428 717 425 663 428 z m 273 176 b 603 326 273 256 350 326 b 750 320 648 326 701 324 l 731 211 b 390 94 622 142 498 94 b 273 176 309 94 273 126 z m 474 957 l 658 756 l 743 824 l 577 1042 z "},"á":{"ha":947,"x_min":0,"x_max":0,"o":"m 612 428 b 126 163 284 428 126 339 b 361 -21 126 29 233 -21 b 714 88 492 -21 607 21 l 719 0 l 832 0 l 905 422 b 910 485 909 444 910 465 b 602 698 910 644 782 698 b 263 643 461 698 342 670 l 291 531 b 583 581 354 553 465 581 b 771 460 713 581 771 546 b 767 420 771 451 768 429 b 612 428 717 425 663 428 z m 273 176 b 603 326 273 256 350 326 b 750 320 648 326 701 324 l 731 211 b 390 94 622 142 498 94 b 273 176 309 94 273 126 z m 499 831 l 573 753 l 825 955 l 740 1049 z "},"â":{"ha":947,"x_min":0,"x_max":0,"o":"m 612 428 b 126 163 284 428 126 339 b 361 -21 126 29 233 -21 b 714 88 492 -21 607 21 l 719 0 l 832 0 l 905 422 b 910 485 909 444 910 465 b 602 698 910 644 782 698 b 263 643 461 698 342 670 l 291 531 b 583 581 354 553 465 581 b 771 460 713 581 771 546 b 767 420 771 451 768 429 b 612 428 717 425 663 428 z m 273 176 b 603 326 273 256 350 326 b 750 320 648 326 701 324 l 731 211 b 390 94 622 142 498 94 b 273 176 309 94 273 126 z m 412 823 l 492 753 l 649 926 l 746 755 l 844 808 l 728 1002 l 589 1002 z "},"ã":{"ha":947,"x_min":0,"x_max":0,"o":"m 612 428 b 126 163 284 428 126 339 b 361 -21 126 29 233 -21 b 714 88 492 -21 607 21 l 719 0 l 832 0 l 905 422 b 910 485 909 444 910 465 b 602 698 910 644 782 698 b 263 643 461 698 342 670 l 291 531 b 583 581 354 553 465 581 b 771 460 713 581 771 546 b 767 420 771 451 768 429 b 612 428 717 425 663 428 z m 273 176 b 603 326 273 256 350 326 b 750 320 648 326 701 324 l 731 211 b 390 94 622 142 498 94 b 273 176 309 94 273 126 z m 365 810 l 452 769 b 542 844 479 813 505 844 b 617 804 568 844 587 825 b 727 765 650 781 682 765 b 903 907 790 765 849 792 l 816 952 b 726 871 783 893 756 871 b 654 910 703 871 686 886 b 547 951 625 931 594 951 b 365 810 473 951 408 910 z "},"ä":{"ha":947,"x_min":0,"x_max":0,"o":"m 612 428 b 126 163 284 428 126 339 b 361 -21 126 29 233 -21 b 714 88 492 -21 607 21 l 719 0 l 832 0 l 905 422 b 910 485 909 444 910 465 b 602 698 910 644 782 698 b 263 643 461 698 342 670 l 291 531 b 583 581 354 553 465 581 b 771 460 713 581 771 546 b 767 420 771 451 768 429 b 612 428 717 425 663 428 z m 273 176 b 603 326 273 256 350 326 b 750 320 648 326 701 324 l 731 211 b 390 94 622 142 498 94 b 273 176 309 94 273 126 z m 406 781 l 549 781 l 574 933 l 433 933 z m 676 781 l 818 781 l 844 933 l 702 933 z "},"å":{"ha":947,"x_min":0,"x_max":0,"o":"m 612 428 b 126 163 284 428 126 339 b 361 -21 126 29 233 -21 b 714 88 492 -21 607 21 l 719 0 l 832 0 l 905 422 b 910 485 909 444 910 465 b 602 698 910 644 782 698 b 263 643 461 698 342 670 l 291 531 b 583 581 354 553 465 581 b 771 460 713 581 771 546 b 767 420 771 451 768 429 b 612 428 717 425 663 428 z m 273 176 b 603 326 273 256 350 326 b 750 320 648 326 701 324 l 731 211 b 390 94 622 142 498 94 b 273 176 309 94 273 126 z m 478 878 b 624 754 478 806 530 754 b 808 911 732 754 808 824 b 664 1037 808 988 751 1037 b 478 878 553 1037 478 965 z m 567 887 b 656 964 567 931 601 964 b 719 906 701 964 719 939 b 632 828 719 860 683 828 b 567 887 585 828 567 853 z "},"ā":{"ha":947,"x_min":0,"x_max":0,"o":"m 612 428 b 126 163 284 428 126 339 b 361 -21 126 29 233 -21 b 714 88 492 -21 607 21 l 719 0 l 832 0 l 905 422 b 910 485 909 444 910 465 b 602 698 910 644 782 698 b 263 643 461 698 342 670 l 291 531 b 583 581 354 553 465 581 b 771 460 713 581 771 546 b 767 420 771 451 768 429 b 612 428 717 425 663 428 z m 273 176 b 603 326 273 256 350 326 b 750 320 648 326 701 324 l 731 211 b 390 94 622 142 498 94 b 273 176 309 94 273 126 z m 419 781 l 831 781 l 849 888 l 438 888 z "},"ă":{"ha":947,"x_min":0,"x_max":0,"o":"m 612 428 b 126 163 284 428 126 339 b 361 -21 126 29 233 -21 b 714 88 492 -21 607 21 l 719 0 l 832 0 l 905 422 b 910 485 909 444 910 465 b 602 698 910 644 782 698 b 263 643 461 698 342 670 l 291 531 b 583 581 354 553 465 581 b 771 460 713 581 771 546 b 767 420 771 451 768 429 b 612 428 717 425 663 428 z m 273 176 b 603 326 273 256 350 326 b 750 320 648 326 701 324 l 731 211 b 390 94 622 142 498 94 b 273 176 309 94 273 126 z m 438 928 b 619 754 438 819 500 754 b 865 960 758 754 832 837 l 753 976 b 627 851 724 874 672 851 b 549 956 585 851 549 867 b 549 974 549 962 549 968 l 440 967 b 438 928 439 953 438 941 z "},"ą":{"ha":956,"x_min":0,"x_max":0,"o":"m 831 0 l 832 0 l 905 422 b 910 485 909 444 910 465 b 602 698 910 644 782 698 b 263 643 461 698 342 670 l 291 531 b 583 581 354 553 465 581 b 771 460 713 581 771 546 b 767 420 771 451 768 429 b 612 428 717 425 663 428 b 126 163 284 428 126 339 b 361 -21 126 29 233 -21 b 714 88 492 -21 607 21 l 717 25 b 547 -162 601 -28 547 -86 b 705 -290 547 -243 606 -290 b 851 -261 760 -290 814 -275 l 831 -170 b 721 -194 792 -185 759 -194 b 666 -143 689 -194 666 -181 b 831 0 666 -102 701 -53 z m 273 176 b 603 326 273 256 350 326 b 750 320 648 326 701 324 l 731 211 b 390 94 622 142 498 94 b 273 176 309 94 273 126 z "},"ǻ":{"ha":947,"x_min":0,"x_max":0,"o":"m 540 1131 l 569 1049 l 837 1138 l 805 1230 z m 126 163 b 361 -21 126 29 233 -21 b 714 88 492 -21 607 21 l 719 0 l 832 0 l 905 422 b 910 485 909 444 910 465 b 602 698 910 644 782 698 b 263 643 461 698 342 670 l 291 531 b 583 581 354 553 465 581 b 771 460 713 581 771 546 b 767 420 771 451 768 429 b 612 428 717 425 663 428 b 126 163 284 428 126 339 z m 273 176 b 603 326 273 256 350 326 b 750 320 648 326 701 324 l 731 211 b 390 94 622 142 498 94 b 273 176 309 94 273 126 z m 474 865 b 619 741 474 793 525 741 b 803 898 727 741 803 811 b 659 1024 803 974 747 1024 b 474 865 549 1024 474 951 z m 563 874 b 651 951 563 917 597 951 b 714 892 697 951 714 926 b 627 815 714 847 678 815 b 563 874 581 815 563 840 z "},"b":{"ha":987,"x_min":0,"x_max":0,"o":"m 531 -21 b 958 400 772 -21 958 113 b 655 697 958 601 826 697 b 374 613 525 697 427 648 l 437 982 l 298 982 l 128 0 l 230 0 l 268 76 b 531 -21 317 31 405 -21 z m 301 195 l 350 476 b 617 577 419 526 518 577 b 809 384 744 577 809 510 b 536 99 809 210 706 99 b 301 195 445 99 370 131 z "},"c":{"ha":901,"x_min":0,"x_max":0,"o":"m 497 -21 b 836 67 622 -21 719 7 l 784 181 b 517 99 706 138 613 99 b 292 293 380 99 292 153 b 603 578 292 481 434 578 b 847 515 677 578 758 554 l 899 635 b 610 697 826 666 739 697 b 145 279 354 697 145 551 b 497 -21 145 79 279 -21 z "},"ç":{"ha":901,"x_min":0,"x_max":0,"o":"m 292 -174 l 260 -264 b 410 -290 289 -276 346 -290 b 628 -117 560 -290 628 -228 b 590 -15 628 -78 616 -44 b 836 67 674 -4 750 23 l 784 181 b 517 99 706 138 613 99 b 292 293 380 99 292 153 b 603 578 292 481 434 578 b 847 515 677 578 758 554 l 899 635 b 610 697 826 666 739 697 b 145 279 354 697 145 551 b 415 -15 145 106 246 8 b 513 -120 492 -50 513 -88 b 418 -195 513 -167 478 -195 b 292 -174 375 -195 327 -185 z "},"ć":{"ha":901,"x_min":0,"x_max":0,"o":"m 497 -21 b 836 67 622 -21 719 7 l 784 181 b 517 99 706 138 613 99 b 292 293 380 99 292 153 b 603 578 292 481 434 578 b 847 515 677 578 758 554 l 899 635 b 610 697 826 666 739 697 b 145 279 354 697 145 551 b 497 -21 145 79 279 -21 z m 490 831 l 564 753 l 816 955 l 731 1049 z "},"ĉ":{"ha":901,"x_min":0,"x_max":0,"o":"m 497 -21 b 836 67 622 -21 719 7 l 784 181 b 517 99 706 138 613 99 b 292 293 380 99 292 153 b 603 578 292 481 434 578 b 847 515 677 578 758 554 l 899 635 b 610 697 826 666 739 697 b 145 279 354 697 145 551 b 497 -21 145 79 279 -21 z m 410 823 l 490 753 l 647 926 l 744 755 l 842 808 l 727 1002 l 588 1002 z "},"ċ":{"ha":901,"x_min":0,"x_max":0,"o":"m 567 933 l 540 781 l 683 781 l 708 933 z m 145 279 b 497 -21 145 79 279 -21 b 836 67 622 -21 719 7 l 784 181 b 517 99 706 138 613 99 b 292 293 380 99 292 153 b 603 578 292 481 434 578 b 847 515 677 578 758 554 l 899 635 b 610 697 826 666 739 697 b 145 279 354 697 145 551 z "},"č":{"ha":901,"x_min":0,"x_max":0,"o":"m 497 -21 b 836 67 622 -21 719 7 l 784 181 b 517 99 706 138 613 99 b 292 293 380 99 292 153 b 603 578 292 481 434 578 b 847 515 677 578 758 554 l 899 635 b 610 697 826 666 739 697 b 145 279 354 697 145 551 b 497 -21 145 79 279 -21 z m 435 965 l 548 774 l 688 774 l 862 952 l 786 1022 l 627 847 l 530 1021 z "},"d":{"ha":987,"x_min":0,"x_max":0,"o":"m 579 697 b 145 274 340 697 145 552 b 456 -21 145 77 269 -21 b 747 77 583 -21 689 37 l 749 0 l 858 0 l 1028 982 l 889 982 l 828 627 b 579 697 771 661 690 697 z m 292 285 b 574 578 292 463 401 578 b 807 508 656 578 728 554 l 754 203 b 488 98 684 150 582 98 b 292 285 361 98 292 156 z "},"ď":{"ha":1099,"x_min":0,"x_max":0,"o":"m 1164 995 l 1079 701 l 1197 676 l 1298 968 z m 145 274 b 456 -21 145 77 269 -21 b 747 77 583 -21 689 37 l 749 0 l 858 0 l 1028 982 l 889 982 l 828 627 b 579 697 771 661 690 697 b 145 274 340 697 145 552 z m 292 285 b 574 578 292 463 401 578 b 807 508 656 578 728 554 l 754 203 b 488 98 684 150 582 98 b 292 285 361 98 292 156 z "},"e":{"ha":937,"x_min":0,"x_max":0,"o":"m 492 -21 b 851 54 616 -21 722 3 l 813 165 b 506 97 719 128 623 97 b 282 281 363 97 284 147 l 892 281 b 922 419 906 309 922 351 b 592 697 922 569 813 697 b 138 273 328 697 138 526 b 492 -21 138 74 274 -21 z m 297 383 b 582 583 331 501 433 583 b 785 417 704 583 778 523 b 784 383 785 406 785 392 z "},"è":{"ha":937,"x_min":0,"x_max":0,"o":"m 441 957 l 624 756 l 710 824 l 544 1042 z m 138 273 b 492 -21 138 74 274 -21 b 851 54 616 -21 722 3 l 813 165 b 506 97 719 128 623 97 b 282 281 363 97 284 147 l 892 281 b 922 419 906 309 922 351 b 592 697 922 569 813 697 b 138 273 328 697 138 526 z m 297 383 b 582 583 331 501 433 583 b 785 417 704 583 778 523 b 784 383 785 406 785 392 z "},"é":{"ha":937,"x_min":0,"x_max":0,"o":"m 492 -21 b 851 54 616 -21 722 3 l 813 165 b 506 97 719 128 623 97 b 282 281 363 97 284 147 l 892 281 b 922 419 906 309 922 351 b 592 697 922 569 813 697 b 138 273 328 697 138 526 b 492 -21 138 74 274 -21 z m 297 383 b 582 583 331 501 433 583 b 785 417 704 583 778 523 b 784 383 785 406 785 392 z m 513 831 l 587 753 l 839 955 l 754 1049 z "},"ê":{"ha":937,"x_min":0,"x_max":0,"o":"m 385 823 l 465 753 l 622 926 l 719 755 l 817 808 l 701 1002 l 562 1002 z m 138 273 b 492 -21 138 74 274 -21 b 851 54 616 -21 722 3 l 813 165 b 506 97 719 128 623 97 b 282 281 363 97 284 147 l 892 281 b 922 419 906 309 922 351 b 592 697 922 569 813 697 b 138 273 328 697 138 526 z m 297 383 b 582 583 331 501 433 583 b 785 417 704 583 778 523 b 784 383 785 406 785 392 z "},"ë":{"ha":937,"x_min":0,"x_max":0,"o":"m 426 933 l 400 781 l 542 781 l 568 933 z m 138 273 b 492 -21 138 74 274 -21 b 851 54 616 -21 722 3 l 813 165 b 506 97 719 128 623 97 b 282 281 363 97 284 147 l 892 281 b 922 419 906 309 922 351 b 592 697 922 569 813 697 b 138 273 328 697 138 526 z m 297 383 b 582 583 331 501 433 583 b 785 417 704 583 778 523 b 784 383 785 406 785 392 z m 669 781 l 812 781 l 838 933 l 696 933 z "},"ē":{"ha":937,"x_min":0,"x_max":0,"o":"m 492 -21 b 851 54 616 -21 722 3 l 813 165 b 506 97 719 128 623 97 b 282 281 363 97 284 147 l 892 281 b 922 419 906 309 922 351 b 592 697 922 569 813 697 b 138 273 328 697 138 526 b 492 -21 138 74 274 -21 z m 297 383 b 582 583 331 501 433 583 b 785 417 704 583 778 523 b 784 383 785 406 785 392 z m 394 781 l 806 781 l 824 888 l 413 888 z "},"ĕ":{"ha":937,"x_min":0,"x_max":0,"o":"m 492 -21 b 851 54 616 -21 722 3 l 813 165 b 506 97 719 128 623 97 b 282 281 363 97 284 147 l 892 281 b 922 419 906 309 922 351 b 592 697 922 569 813 697 b 138 273 328 697 138 526 b 492 -21 138 74 274 -21 z m 297 383 b 582 583 331 501 433 583 b 785 417 704 583 778 523 b 784 383 785 406 785 392 z m 428 928 b 610 754 428 819 490 754 b 856 960 749 754 822 837 l 743 976 b 617 851 715 874 662 851 b 539 956 575 851 539 867 b 540 974 539 962 539 968 l 431 967 b 428 928 429 953 428 941 z "},"ė":{"ha":937,"x_min":0,"x_max":0,"o":"m 556 933 l 530 781 l 672 781 l 698 933 z m 138 273 b 492 -21 138 74 274 -21 b 851 54 616 -21 722 3 l 813 165 b 506 97 719 128 623 97 b 282 281 363 97 284 147 l 892 281 b 922 419 906 309 922 351 b 592 697 922 569 813 697 b 138 273 328 697 138 526 z m 297 383 b 582 583 331 501 433 583 b 785 417 704 583 778 523 b 784 383 785 406 785 392 z "},"ę":{"ha":975,"x_min":0,"x_max":0,"o":"m 492 -21 b 535 -20 506 -21 522 -21 b 472 -162 493 -61 472 -106 b 634 -290 472 -243 533 -290 b 799 -261 697 -290 756 -275 l 778 -170 b 651 -194 733 -185 695 -194 b 592 -143 613 -194 592 -181 b 770 24 592 -94 629 -37 b 851 54 797 33 824 43 l 813 165 b 506 97 719 128 623 97 b 282 281 363 97 284 147 l 892 281 b 922 419 906 309 922 351 b 592 697 922 569 813 697 b 138 273 328 697 138 526 b 492 -21 138 74 274 -21 z m 297 383 b 582 583 331 501 433 583 b 785 417 704 583 778 523 b 784 383 785 406 785 392 z "},"ě":{"ha":937,"x_min":0,"x_max":0,"o":"m 492 -21 b 851 54 616 -21 722 3 l 813 165 b 506 97 719 128 623 97 b 282 281 363 97 284 147 l 892 281 b 922 419 906 309 922 351 b 592 697 922 569 813 697 b 138 273 328 697 138 526 b 492 -21 138 74 274 -21 z m 297 383 b 582 583 331 501 433 583 b 785 417 704 583 778 523 b 784 383 785 406 785 392 z m 422 965 l 535 774 l 675 774 l 849 952 l 774 1022 l 615 847 l 517 1021 z "},"f":{"ha":702,"x_min":0,"x_max":0,"o":"m 295 561 l 199 0 l 337 0 l 434 561 l 783 561 l 802 674 l 453 674 l 469 762 b 662 889 486 862 541 889 b 848 861 725 889 787 876 l 887 975 b 668 1008 858 983 763 1008 b 332 776 495 1008 363 963 l 315 674 l 178 674 l 159 561 z "},"g":{"ha":1013,"x_min":0,"x_max":0,"o":"m 151 -104 l 104 -222 b 426 -290 171 -254 273 -290 b 888 20 688 -290 851 -190 l 1001 674 l 891 674 l 867 615 b 599 697 808 656 719 697 b 172 287 366 697 172 560 b 481 6 172 94 297 6 b 763 96 603 6 706 58 l 751 31 b 437 -171 724 -123 571 -171 b 151 -104 306 -171 218 -137 z m 319 301 b 599 578 319 467 426 578 b 832 506 690 578 760 553 l 786 233 b 512 126 717 178 614 126 b 319 301 389 126 319 174 z "},"ĝ":{"ha":1013,"x_min":0,"x_max":0,"o":"m 417 823 l 497 753 l 653 926 l 751 755 l 849 808 l 733 1002 l 594 1002 z m 104 -222 b 426 -290 171 -254 273 -290 b 888 20 688 -290 851 -190 l 1001 674 l 891 674 l 867 615 b 599 697 808 656 719 697 b 172 287 366 697 172 560 b 481 6 172 94 297 6 b 763 96 603 6 706 58 l 751 31 b 437 -171 724 -123 571 -171 b 151 -104 306 -171 218 -137 z m 319 301 b 599 578 319 467 426 578 b 832 506 690 578 760 553 l 786 233 b 512 126 717 178 614 126 b 319 301 389 126 319 174 z "},"ğ":{"ha":1013,"x_min":0,"x_max":0,"o":"m 151 -104 l 104 -222 b 426 -290 171 -254 273 -290 b 888 20 688 -290 851 -190 l 1001 674 l 891 674 l 867 615 b 599 697 808 656 719 697 b 172 287 366 697 172 560 b 481 6 172 94 297 6 b 763 96 603 6 706 58 l 751 31 b 437 -171 724 -123 571 -171 b 151 -104 306 -171 218 -137 z m 319 301 b 599 578 319 467 426 578 b 832 506 690 578 760 553 l 786 233 b 512 126 717 178 614 126 b 319 301 389 126 319 174 z m 460 928 b 642 754 460 819 522 754 b 888 960 781 754 854 837 l 775 976 b 649 851 747 874 694 851 b 571 956 607 851 571 867 b 572 974 571 962 571 968 l 463 967 b 460 928 461 953 460 941 z "},"ġ":{"ha":1013,"x_min":0,"x_max":0,"o":"m 599 933 l 572 781 l 715 781 l 740 933 z m 104 -222 b 426 -290 171 -254 273 -290 b 888 20 688 -290 851 -190 l 1001 674 l 891 674 l 867 615 b 599 697 808 656 719 697 b 172 287 366 697 172 560 b 481 6 172 94 297 6 b 763 96 603 6 706 58 l 751 31 b 437 -171 724 -123 571 -171 b 151 -104 306 -171 218 -137 z m 319 301 b 599 578 319 467 426 578 b 832 506 690 578 760 553 l 786 233 b 512 126 717 178 614 126 b 319 301 389 126 319 174 z "},"ģ":{"ha":1013,"x_min":0,"x_max":0,"o":"m 698 1103 l 583 939 l 558 794 l 706 794 l 731 934 l 681 934 l 754 1072 z m 104 -222 b 426 -290 171 -254 273 -290 b 888 20 688 -290 851 -190 l 1001 674 l 891 674 l 867 615 b 599 697 808 656 719 697 b 172 287 366 697 172 560 b 481 6 172 94 297 6 b 763 96 603 6 706 58 l 751 31 b 437 -171 724 -123 571 -171 b 151 -104 306 -171 218 -137 z m 319 301 b 599 578 319 467 426 578 b 832 506 690 578 760 553 l 786 233 b 512 126 717 178 614 126 b 319 301 389 126 319 174 z "},"h":{"ha":978,"x_min":0,"x_max":0,"o":"m 298 982 l 128 0 l 267 0 l 350 479 b 662 578 390 503 516 578 b 800 461 750 578 800 546 b 795 412 800 447 799 430 l 724 0 l 863 0 l 936 423 b 942 494 940 449 942 472 b 685 698 942 652 828 698 b 371 602 536 698 420 634 l 437 982 z "},"ĥ":{"ha":978,"x_min":0,"x_max":0,"o":"m 439 1085 l 514 1005 l 697 1151 l 831 1005 l 918 1080 l 760 1238 l 651 1238 z m 128 0 l 267 0 l 350 479 b 662 578 390 503 516 578 b 800 461 750 578 800 546 b 795 412 800 447 799 430 l 724 0 l 863 0 l 936 423 b 942 494 940 449 942 472 b 685 698 942 652 828 698 b 371 602 536 698 420 634 l 437 982 l 298 982 z "},"i":{"ha":396,"x_min":0,"x_max":0,"o":"m 245 674 l 128 0 l 267 0 l 384 674 z m 263 781 l 402 781 l 428 933 l 290 933 z "},"ì":{"ha":398,"x_min":0,"x_max":0,"o":"m 146 957 l 329 756 l 415 824 l 249 1042 z m 130 0 l 269 0 l 385 674 l 247 674 z "},"í":{"ha":398,"x_min":0,"x_max":0,"o":"m 247 674 l 130 0 l 269 0 l 385 674 z m 260 831 l 333 753 l 585 955 l 501 1049 z "},"î":{"ha":398,"x_min":0,"x_max":0,"o":"m 119 823 l 199 753 l 356 926 l 453 755 l 551 808 l 436 1002 l 297 1002 z m 130 0 l 269 0 l 385 674 l 247 674 z "},"ï":{"ha":398,"x_min":0,"x_max":0,"o":"m 154 933 l 128 781 l 270 781 l 296 933 z m 130 0 l 269 0 l 385 674 l 247 674 z m 397 781 l 540 781 l 565 933 l 424 933 z "},"ĩ":{"ha":398,"x_min":0,"x_max":0,"o":"m 247 674 l 130 0 l 269 0 l 385 674 z m 80 810 l 167 769 b 256 844 194 813 219 844 b 331 804 283 844 301 825 b 442 765 365 781 397 765 b 618 907 505 765 563 792 l 531 952 b 440 871 498 893 471 871 b 369 910 418 871 401 886 b 261 951 340 931 308 951 b 80 810 188 951 123 910 z "},"ī":{"ha":398,"x_min":0,"x_max":0,"o":"m 247 674 l 130 0 l 269 0 l 385 674 z m 128 781 l 540 781 l 558 888 l 147 888 z "},"ĭ":{"ha":398,"x_min":0,"x_max":0,"o":"m 247 674 l 130 0 l 269 0 l 385 674 z m 154 928 b 335 754 154 819 216 754 b 581 960 474 754 548 837 l 469 976 b 343 851 440 874 388 851 b 265 956 301 851 265 867 b 265 974 265 962 265 968 l 156 967 b 154 928 155 953 154 941 z "},"į":{"ha":396,"x_min":0,"x_max":0,"o":"m 146 -290 b 310 -261 209 -290 268 -275 l 290 -170 b 163 -194 244 -185 207 -194 b 104 -143 125 -194 104 -181 b 267 0 104 -102 139 -55 l 384 674 l 245 674 l 131 17 b -16 -162 29 -33 -16 -89 b 146 -290 -16 -243 44 -290 z m 263 781 l 402 781 l 428 933 l 290 933 z "},"j":{"ha":467,"x_min":0,"x_max":0,"o":"m -17 -167 l 2 -290 b 338 -3 204 -236 310 -162 l 455 674 l 316 674 l 203 22 b -17 -167 186 -74 102 -123 z m 334 781 l 473 781 l 499 933 l 360 933 z "},"ĵ":{"ha":458,"x_min":0,"x_max":0,"o":"m 190 22 b -30 -167 173 -74 88 -123 l -11 -290 b 324 -3 191 -236 297 -162 l 441 674 l 303 674 z m 167 823 l 247 753 l 403 926 l 501 755 l 599 808 l 483 1002 l 344 1002 z "},"k":{"ha":922,"x_min":0,"x_max":0,"o":"m 560 330 l 769 -23 l 883 44 l 669 406 l 952 601 l 883 702 l 321 313 l 437 982 l 298 982 l 128 0 l 267 0 l 292 147 z "},"ķ":{"ha":922,"x_min":0,"x_max":0,"o":"m 420 -399 l 535 -235 l 560 -90 l 412 -90 l 388 -230 l 437 -230 l 364 -367 z m 128 0 l 267 0 l 292 147 l 560 330 l 769 -23 l 883 44 l 669 406 l 952 601 l 883 702 l 321 313 l 437 982 l 298 982 z "},"l":{"ha":395,"x_min":0,"x_max":0,"o":"m 298 982 l 128 0 l 267 0 l 437 982 z "},"ĺ":{"ha":395,"x_min":0,"x_max":0,"o":"m 308 1128 l 357 1031 l 676 1179 l 624 1288 z m 128 0 l 267 0 l 437 982 l 298 982 z "},"ļ":{"ha":395,"x_min":0,"x_max":0,"o":"m 122 -399 l 238 -235 l 263 -90 l 114 -90 l 90 -230 l 139 -230 l 66 -367 z m 128 0 l 267 0 l 437 982 l 298 982 z "},"ľ":{"ha":504,"x_min":0,"x_max":0,"o":"m 569 994 l 485 701 l 602 676 l 703 967 z m 128 0 l 267 0 l 437 982 l 298 982 z "},"m":{"ha":1485,"x_min":0,"x_max":0,"o":"m 245 674 l 128 0 l 267 0 l 350 480 b 651 578 388 503 517 578 b 774 469 731 578 774 545 b 771 427 774 456 774 442 l 697 0 l 836 0 l 922 499 b 1185 578 976 528 1077 578 b 1307 465 1267 578 1307 544 b 1302 412 1307 449 1306 431 l 1231 0 l 1370 0 l 1443 423 b 1450 498 1447 450 1450 475 b 1208 698 1450 652 1345 698 b 897 597 1082 698 965 640 b 674 698 858 673 778 698 b 365 598 542 698 429 639 l 361 674 z "},"n":{"ha":990,"x_min":0,"x_max":0,"o":"m 245 674 l 128 0 l 267 0 l 350 478 b 669 578 390 502 525 578 b 812 463 764 578 812 547 b 806 406 812 445 810 426 l 736 0 l 875 0 l 948 423 b 955 497 953 450 955 474 b 696 698 955 652 846 698 b 365 598 550 698 430 637 l 361 674 z "},"ñ":{"ha":990,"x_min":0,"x_max":0,"o":"m 245 674 l 128 0 l 267 0 l 350 478 b 669 578 390 502 525 578 b 812 463 764 578 812 547 b 806 406 812 445 810 426 l 736 0 l 875 0 l 948 423 b 955 497 953 450 955 474 b 696 698 955 652 846 698 b 365 598 550 698 430 637 l 361 674 z m 397 810 l 484 769 b 574 844 511 813 537 844 b 649 804 600 844 619 825 b 759 765 682 781 714 765 b 935 907 822 765 881 792 l 848 952 b 758 871 815 893 788 871 b 686 910 735 871 718 886 b 578 951 657 931 626 951 b 397 810 505 951 440 910 z "},"ń":{"ha":990,"x_min":0,"x_max":0,"o":"m 524 831 l 598 753 l 850 955 l 765 1049 z m 128 0 l 267 0 l 350 478 b 669 578 390 502 525 578 b 812 463 764 578 812 547 b 806 406 812 445 810 426 l 736 0 l 875 0 l 948 423 b 955 497 953 450 955 474 b 696 698 955 652 846 698 b 365 598 550 698 430 637 l 361 674 l 245 674 z "},"ņ":{"ha":990,"x_min":0,"x_max":0,"o":"m 435 -399 l 550 -235 l 575 -90 l 426 -90 l 402 -230 l 451 -230 l 378 -367 z m 128 0 l 267 0 l 350 478 b 669 578 390 502 525 578 b 812 463 764 578 812 547 b 806 406 812 445 810 426 l 736 0 l 875 0 l 948 423 b 955 497 953 450 955 474 b 696 698 955 652 846 698 b 365 598 550 698 430 637 l 361 674 l 245 674 z "},"ň":{"ha":990,"x_min":0,"x_max":0,"o":"m 465 965 l 578 774 l 718 774 l 892 952 l 817 1022 l 658 847 l 560 1021 z m 128 0 l 267 0 l 350 478 b 669 578 390 502 525 578 b 812 463 764 578 812 547 b 806 406 812 445 810 426 l 736 0 l 875 0 l 948 423 b 955 497 953 450 955 474 b 696 698 955 652 846 698 b 365 598 550 698 430 637 l 361 674 l 245 674 z "},"o":{"ha":1021,"x_min":0,"x_max":0,"o":"m 621 699 b 146 286 356 699 146 544 b 517 -21 146 93 293 -21 b 991 389 790 -21 991 133 b 621 699 991 582 836 699 z m 292 305 b 606 579 292 470 423 579 b 844 373 754 579 844 500 b 531 99 844 210 714 99 b 292 305 376 99 292 176 z "},"ò":{"ha":1021,"x_min":0,"x_max":0,"o":"m 463 957 l 647 756 l 732 824 l 566 1042 z m 146 286 b 517 -21 146 93 293 -21 b 991 389 790 -21 991 133 b 621 699 991 582 836 699 b 146 286 356 699 146 544 z m 292 305 b 606 579 292 470 423 579 b 844 373 754 579 844 500 b 531 99 844 210 714 99 b 292 305 376 99 292 176 z "},"ó":{"ha":1021,"x_min":0,"x_max":0,"o":"m 551 831 l 625 753 l 877 955 l 792 1049 z m 146 286 b 517 -21 146 93 293 -21 b 991 389 790 -21 991 133 b 621 699 991 582 836 699 b 146 286 356 699 146 544 z m 292 305 b 606 579 292 470 423 579 b 844 373 754 579 844 500 b 531 99 844 210 714 99 b 292 305 376 99 292 176 z "},"ô":{"ha":1021,"x_min":0,"x_max":0,"o":"m 424 823 l 503 753 l 660 926 l 758 755 l 856 808 l 740 1002 l 601 1002 z m 146 286 b 517 -21 146 93 293 -21 b 991 389 790 -21 991 133 b 621 699 991 582 836 699 b 146 286 356 699 146 544 z m 292 305 b 606 579 292 470 423 579 b 844 373 754 579 844 500 b 531 99 844 210 714 99 b 292 305 376 99 292 176 z "},"õ":{"ha":1021,"x_min":0,"x_max":0,"o":"m 621 699 b 146 286 356 699 146 544 b 517 -21 146 93 293 -21 b 991 389 790 -21 991 133 b 621 699 991 582 836 699 z m 292 305 b 606 579 292 470 423 579 b 844 373 754 579 844 500 b 531 99 844 210 714 99 b 292 305 376 99 292 176 z m 376 810 l 463 769 b 553 844 490 813 516 844 b 628 804 579 844 598 825 b 738 765 661 781 693 765 b 915 907 801 765 860 792 l 827 952 b 737 871 794 893 767 871 b 665 910 715 871 697 886 b 558 951 636 931 605 951 b 376 810 484 951 419 910 z "},"ö":{"ha":1021,"x_min":0,"x_max":0,"o":"m 452 933 l 426 781 l 568 781 l 594 933 z m 146 286 b 517 -21 146 93 293 -21 b 991 389 790 -21 991 133 b 621 699 991 582 836 699 b 146 286 356 699 146 544 z m 292 305 b 606 579 292 470 423 579 b 844 373 754 579 844 500 b 531 99 844 210 714 99 b 292 305 376 99 292 176 z m 695 781 l 838 781 l 863 933 l 722 933 z "},"ō":{"ha":1021,"x_min":0,"x_max":0,"o":"m 621 699 b 146 286 356 699 146 544 b 517 -21 146 93 293 -21 b 991 389 790 -21 991 133 b 621 699 991 582 836 699 z m 292 305 b 606 579 292 470 423 579 b 844 373 754 579 844 500 b 531 99 844 210 714 99 b 292 305 376 99 292 176 z m 426 781 l 838 781 l 856 888 l 445 888 z "},"ŏ":{"ha":1021,"x_min":0,"x_max":0,"o":"m 621 699 b 146 286 356 699 146 544 b 517 -21 146 93 293 -21 b 991 389 790 -21 991 133 b 621 699 991 582 836 699 z m 292 305 b 606 579 292 470 423 579 b 844 373 754 579 844 500 b 531 99 844 210 714 99 b 292 305 376 99 292 176 z m 450 928 b 631 754 450 819 512 754 b 877 960 770 754 844 837 l 765 976 b 639 851 736 874 683 851 b 560 956 597 851 560 867 b 561 974 560 962 560 968 l 452 967 b 450 928 451 953 450 941 z "},"ő":{"ha":1021,"x_min":0,"x_max":0,"o":"m 424 813 l 508 749 l 706 963 l 606 1043 z m 146 286 b 517 -21 146 93 293 -21 b 991 389 790 -21 991 133 b 621 699 991 582 836 699 b 146 286 356 699 146 544 z m 292 305 b 606 579 292 470 423 579 b 844 373 754 579 844 500 b 531 99 844 210 714 99 b 292 305 376 99 292 176 z m 710 826 l 788 753 l 1006 949 l 916 1039 z "},"p":{"ha":987,"x_min":0,"x_max":0,"o":"m 245 674 l 81 -274 l 220 -274 l 278 65 b 531 -21 328 24 414 -21 b 958 400 774 -21 958 114 b 656 697 958 601 826 697 b 363 606 519 697 414 641 l 362 674 z m 300 191 l 350 482 b 617 578 419 530 519 578 b 810 384 745 578 810 510 b 536 99 810 210 706 99 b 300 191 447 99 372 130 z "},"q":{"ha":985,"x_min":0,"x_max":0,"o":"m 456 -21 b 730 66 573 -21 672 29 l 671 -274 l 810 -274 l 974 674 l 865 674 l 842 617 b 579 697 785 655 699 697 b 145 274 340 697 145 552 b 456 -21 145 77 269 -21 z m 292 285 b 574 578 292 463 401 578 b 806 510 656 578 728 555 l 753 200 b 488 99 683 148 582 99 b 292 285 361 99 292 157 z "},"r":{"ha":642,"x_min":0,"x_max":0,"o":"m 129 0 l 269 0 l 348 455 b 715 563 476 517 596 551 l 694 699 b 362 571 583 688 459 635 l 360 674 l 245 674 z "},"ŕ":{"ha":642,"x_min":0,"x_max":0,"o":"m 129 0 l 269 0 l 348 455 b 715 563 476 517 596 551 l 694 699 b 362 571 583 688 459 635 l 360 674 l 245 674 z m 369 831 l 443 753 l 695 955 l 610 1049 z "},"ŗ":{"ha":642,"x_min":0,"x_max":0,"o":"m 119 -399 l 235 -235 l 260 -90 l 111 -90 l 87 -230 l 136 -230 l 63 -367 z m 129 0 l 269 0 l 348 455 b 715 563 476 517 596 551 l 694 699 b 362 571 583 688 459 635 l 360 674 l 245 674 z "},"ř":{"ha":642,"x_min":0,"x_max":0,"o":"m 129 0 l 269 0 l 348 455 b 715 563 476 517 596 551 l 694 699 b 362 571 583 688 459 635 l 360 674 l 245 674 z m 305 965 l 418 774 l 558 774 l 732 952 l 656 1022 l 497 847 l 400 1021 z "},"s":{"ha":853,"x_min":0,"x_max":0,"o":"m 124 160 l 83 47 b 419 -21 146 17 265 -21 b 814 233 658 -21 814 40 b 514 410 814 388 654 402 b 303 487 403 417 303 419 b 526 589 303 554 381 589 b 787 542 616 589 703 569 l 824 654 b 528 699 759 676 652 699 b 169 470 337 699 169 641 b 453 297 169 319 316 304 b 685 211 573 290 685 290 b 431 94 685 135 587 94 b 124 160 304 94 202 125 z "},"ś":{"ha":853,"x_min":0,"x_max":0,"o":"m 124 160 l 83 47 b 419 -21 146 17 265 -21 b 814 233 658 -21 814 40 b 514 410 814 388 654 402 b 303 487 403 417 303 419 b 526 589 303 554 381 589 b 787 542 616 589 703 569 l 824 654 b 528 699 759 676 652 699 b 169 470 337 699 169 641 b 453 297 169 319 316 304 b 685 211 573 290 685 290 b 431 94 685 135 587 94 b 124 160 304 94 202 125 z m 426 831 l 499 753 l 751 955 l 667 1049 z "},"ŝ":{"ha":853,"x_min":0,"x_max":0,"o":"m 124 160 l 83 47 b 419 -21 146 17 265 -21 b 814 233 658 -21 814 40 b 514 410 814 388 654 402 b 303 487 403 417 303 419 b 526 589 303 554 381 589 b 787 542 616 589 703 569 l 824 654 b 528 699 759 676 652 699 b 169 470 337 699 169 641 b 453 297 169 319 316 304 b 685 211 573 290 685 290 b 431 94 685 135 587 94 b 124 160 304 94 202 125 z m 337 822 l 417 752 l 574 925 l 671 753 l 769 807 l 653 1001 l 514 1001 z "},"ş":{"ha":853,"x_min":0,"x_max":0,"o":"m 124 160 l 83 47 b 358 -19 137 22 233 -10 b 449 -120 429 -52 449 -90 b 354 -195 449 -167 415 -195 b 228 -174 311 -195 263 -185 l 197 -264 b 347 -290 225 -276 282 -290 b 564 -117 496 -290 564 -228 b 527 -16 564 -78 552 -45 b 814 233 703 2 814 71 b 514 410 814 388 654 402 b 303 487 403 417 303 419 b 526 589 303 554 381 589 b 787 542 616 589 703 569 l 824 654 b 528 699 759 676 652 699 b 169 470 337 699 169 641 b 453 297 169 319 316 304 b 685 211 573 290 685 290 b 431 94 685 135 587 94 b 124 160 304 94 202 125 z "},"š":{"ha":853,"x_min":0,"x_max":0,"o":"m 124 160 l 83 47 b 419 -21 146 17 265 -21 b 814 233 658 -21 814 40 b 514 410 814 388 654 402 b 303 487 403 417 303 419 b 526 589 303 554 381 589 b 787 542 616 589 703 569 l 824 654 b 528 699 759 676 652 699 b 169 470 337 699 169 641 b 453 297 169 319 316 304 b 685 211 573 290 685 290 b 431 94 685 135 587 94 b 124 160 304 94 202 125 z m 356 965 l 469 774 l 608 774 l 783 952 l 707 1022 l 548 847 l 451 1021 z "},"ș":{"ha":853,"x_min":0,"x_max":0,"o":"m 371 -399 l 486 -235 l 511 -90 l 363 -90 l 338 -230 l 388 -230 l 315 -367 z m 83 47 b 419 -21 146 17 265 -21 b 814 233 658 -21 814 40 b 514 410 814 388 654 402 b 303 487 403 417 303 419 b 526 589 303 554 381 589 b 787 542 616 589 703 569 l 824 654 b 528 699 759 676 652 699 b 169 470 337 699 169 641 b 453 297 169 319 316 304 b 685 211 573 290 685 290 b 431 94 685 135 587 94 b 124 160 304 94 202 125 z "},"t":{"ha":771,"x_min":0,"x_max":0,"o":"m 449 -21 b 709 24 547 -21 648 3 l 684 138 b 473 97 628 117 552 97 b 376 170 410 97 376 115 b 380 205 376 180 378 192 l 441 558 l 772 558 l 792 674 l 461 674 l 492 856 l 354 856 l 323 674 l 172 674 l 152 558 l 303 558 l 239 193 b 234 135 236 172 234 153 b 449 -21 234 7 328 -21 z "},"ţ":{"ha":771,"x_min":0,"x_max":0,"o":"m 340 -403 l 456 -239 l 481 -94 l 332 -94 l 308 -234 l 357 -234 l 284 -372 z m 152 558 l 303 558 l 239 193 b 234 135 236 172 234 153 b 449 -21 234 7 328 -21 b 709 24 547 -21 648 3 l 684 138 b 473 97 628 117 552 97 b 376 170 410 97 376 115 b 380 205 376 180 378 192 l 441 558 l 772 558 l 792 674 l 461 674 l 492 856 l 354 856 l 323 674 l 172 674 z "},"ť":{"ha":771,"x_min":0,"x_max":0,"o":"m 663 1094 l 578 801 l 695 776 l 797 1067 z m 152 558 l 303 558 l 239 193 b 234 135 236 172 234 153 b 449 -21 234 7 328 -21 b 709 24 547 -21 648 3 l 684 138 b 473 97 628 117 552 97 b 376 170 410 97 376 115 b 380 205 376 180 378 192 l 441 558 l 772 558 l 792 674 l 461 674 l 492 856 l 354 856 l 323 674 l 172 674 z "},"ț":{"ha":771,"x_min":0,"x_max":0,"o":"m 353 -399 l 469 -235 l 494 -90 l 345 -90 l 321 -230 l 370 -230 l 297 -367 z m 152 558 l 303 558 l 239 193 b 234 135 236 172 234 153 b 449 -21 234 7 328 -21 b 709 24 547 -21 648 3 l 684 138 b 473 97 628 117 552 97 b 376 170 410 97 376 115 b 380 205 376 180 378 192 l 441 558 l 772 558 l 792 674 l 461 674 l 492 856 l 354 856 l 323 674 l 172 674 z "},"u":{"ha":999,"x_min":0,"x_max":0,"o":"m 171 301 b 161 204 165 265 161 233 b 422 -21 161 24 277 -21 b 761 84 559 -21 684 34 l 763 0 l 872 0 l 989 674 l 850 674 l 770 210 b 451 98 722 171 581 98 b 305 232 353 98 305 127 b 315 335 305 260 308 295 l 374 674 l 235 674 z "},"ù":{"ha":999,"x_min":0,"x_max":0,"o":"m 448 957 l 631 756 l 717 824 l 551 1042 z m 161 204 b 422 -21 161 24 277 -21 b 761 84 559 -21 684 34 l 763 0 l 872 0 l 989 674 l 850 674 l 770 210 b 451 98 722 171 581 98 b 305 232 353 98 305 127 b 315 335 305 260 308 295 l 374 674 l 235 674 l 171 301 b 161 204 165 265 161 233 z "},"ú":{"ha":999,"x_min":0,"x_max":0,"o":"m 171 301 b 161 204 165 265 161 233 b 422 -21 161 24 277 -21 b 761 84 559 -21 684 34 l 763 0 l 872 0 l 989 674 l 850 674 l 770 210 b 451 98 722 171 581 98 b 305 232 353 98 305 127 b 315 335 305 260 308 295 l 374 674 l 235 674 z m 551 831 l 624 753 l 876 955 l 792 1049 z "},"û":{"ha":999,"x_min":0,"x_max":0,"o":"m 417 823 l 497 753 l 654 926 l 751 755 l 849 808 l 734 1002 l 594 1002 z m 161 204 b 422 -21 161 24 277 -21 b 761 84 559 -21 684 34 l 763 0 l 872 0 l 989 674 l 850 674 l 770 210 b 451 98 722 171 581 98 b 305 232 353 98 305 127 b 315 335 305 260 308 295 l 374 674 l 235 674 l 171 301 b 161 204 165 265 161 233 z "},"ü":{"ha":999,"x_min":0,"x_max":0,"o":"m 451 933 l 424 781 l 567 781 l 592 933 z m 161 204 b 422 -21 161 24 277 -21 b 761 84 559 -21 684 34 l 763 0 l 872 0 l 989 674 l 850 674 l 770 210 b 451 98 722 171 581 98 b 305 232 353 98 305 127 b 315 335 305 260 308 295 l 374 674 l 235 674 l 171 301 b 161 204 165 265 161 233 z m 694 781 l 836 781 l 862 933 l 720 933 z "},"ũ":{"ha":999,"x_min":0,"x_max":0,"o":"m 171 301 b 161 204 165 265 161 233 b 422 -21 161 24 277 -21 b 761 84 559 -21 684 34 l 763 0 l 872 0 l 989 674 l 850 674 l 770 210 b 451 98 722 171 581 98 b 305 232 353 98 305 127 b 315 335 305 260 308 295 l 374 674 l 235 674 z m 378 810 l 465 769 b 555 844 492 813 518 844 b 630 804 581 844 600 825 b 740 765 663 781 695 765 b 917 907 803 765 862 792 l 829 952 b 739 871 797 893 769 871 b 667 910 717 871 699 886 b 560 951 638 931 607 951 b 378 810 486 951 422 910 z "},"ū":{"ha":999,"x_min":0,"x_max":0,"o":"m 171 301 b 161 204 165 265 161 233 b 422 -21 161 24 277 -21 b 761 84 559 -21 684 34 l 763 0 l 872 0 l 989 674 l 850 674 l 770 210 b 451 98 722 171 581 98 b 305 232 353 98 305 127 b 315 335 305 260 308 295 l 374 674 l 235 674 z m 420 781 l 832 781 l 850 888 l 439 888 z "},"ŭ":{"ha":999,"x_min":0,"x_max":0,"o":"m 171 301 b 161 204 165 265 161 233 b 422 -21 161 24 277 -21 b 761 84 559 -21 684 34 l 763 0 l 872 0 l 989 674 l 850 674 l 770 210 b 451 98 722 171 581 98 b 305 232 353 98 305 127 b 315 335 305 260 308 295 l 374 674 l 235 674 z m 447 928 b 628 754 447 819 508 754 b 874 960 767 754 840 837 l 761 976 b 635 851 733 874 680 851 b 557 956 593 851 557 867 b 558 974 557 962 557 968 l 449 967 b 447 928 447 953 447 941 z "},"ů":{"ha":999,"x_min":0,"x_max":0,"o":"m 171 301 b 161 204 165 265 161 233 b 422 -21 161 24 277 -21 b 761 84 559 -21 684 34 l 763 0 l 872 0 l 989 674 l 850 674 l 770 210 b 451 98 722 171 581 98 b 305 232 353 98 305 127 b 315 335 305 260 308 295 l 374 674 l 235 674 z m 481 878 b 626 754 481 806 532 754 b 810 911 734 754 810 824 b 666 1037 810 988 753 1037 b 481 878 556 1037 481 965 z m 569 887 b 658 964 569 931 603 964 b 721 906 703 964 721 939 b 634 828 721 860 685 828 b 569 887 588 828 569 853 z "},"ű":{"ha":999,"x_min":0,"x_max":0,"o":"m 171 301 b 161 204 165 265 161 233 b 422 -21 161 24 277 -21 b 761 84 559 -21 684 34 l 763 0 l 872 0 l 989 674 l 850 674 l 770 210 b 451 98 722 171 581 98 b 305 232 353 98 305 127 b 315 335 305 260 308 295 l 374 674 l 235 674 z m 421 813 l 506 749 l 703 963 l 603 1043 z m 707 826 l 785 753 l 1003 949 l 913 1039 z "},"ų":{"ha":999,"x_min":0,"x_max":0,"o":"m 872 0 l 989 674 l 850 674 l 770 210 b 451 98 722 171 581 98 b 305 232 353 98 305 127 b 315 335 305 260 308 295 l 374 674 l 235 674 l 171 301 b 161 204 165 265 161 233 b 422 -21 161 24 277 -21 b 761 84 559 -21 684 34 l 762 26 b 587 -162 644 -26 587 -85 b 746 -290 587 -243 647 -290 b 896 -261 803 -290 857 -275 l 876 -170 b 762 -194 836 -185 802 -194 b 707 -143 731 -194 707 -181 b 872 0 707 -102 742 -53 z "},"v":{"ha":824,"x_min":0,"x_max":0,"o":"m 131 663 l 330 0 l 507 0 l 919 638 l 803 703 l 435 115 l 265 703 z "},"w":{"ha":1210,"x_min":0,"x_max":0,"o":"m 137 669 l 274 0 l 447 0 l 709 558 l 783 0 l 962 0 l 1299 648 l 1187 695 l 885 106 l 812 674 l 635 674 l 373 117 l 263 692 z "},"ŵ":{"ha":1210,"x_min":0,"x_max":0,"o":"m 515 823 l 594 753 l 751 926 l 849 755 l 947 808 l 831 1002 l 692 1002 z m 137 669 l 274 0 l 447 0 l 709 558 l 783 0 l 962 0 l 1299 648 l 1187 695 l 885 106 l 812 674 l 635 674 l 373 117 l 263 692 z "},"ẁ":{"ha":1210,"x_min":0,"x_max":0,"o":"m 554 957 l 738 756 l 823 824 l 657 1042 z m 137 669 l 274 0 l 447 0 l 709 558 l 783 0 l 962 0 l 1299 648 l 1187 695 l 885 106 l 812 674 l 635 674 l 373 117 l 263 692 z "},"ẃ":{"ha":1210,"x_min":0,"x_max":0,"o":"m 649 831 l 722 753 l 974 955 l 890 1049 z m 137 669 l 274 0 l 447 0 l 709 558 l 783 0 l 962 0 l 1299 648 l 1187 695 l 885 106 l 812 674 l 635 674 l 373 117 l 263 692 z "},"ẅ":{"ha":1210,"x_min":0,"x_max":0,"o":"m 556 933 l 530 781 l 672 781 l 698 933 z m 137 669 l 274 0 l 447 0 l 709 558 l 783 0 l 962 0 l 1299 648 l 1187 695 l 885 106 l 812 674 l 635 674 l 373 117 l 263 692 z m 799 781 l 942 781 l 967 933 l 826 933 z "},"x":{"ha":847,"x_min":0,"x_max":0,"o":"m 53 63 l 134 -26 l 474 267 l 731 -26 l 825 58 l 570 347 l 892 615 l 815 703 l 493 428 l 265 697 l 167 613 l 394 352 z "},"y":{"ha":837,"x_min":0,"x_max":0,"o":"m 323 -292 l 928 628 l 813 699 l 448 128 l 271 699 l 139 653 l 360 -5 l 215 -218 z "},"ý":{"ha":837,"x_min":0,"x_max":0,"o":"m 323 -292 l 928 628 l 813 699 l 448 128 l 271 699 l 139 653 l 360 -5 l 215 -218 z m 468 831 l 542 753 l 794 955 l 709 1049 z "},"ÿ":{"ha":837,"x_min":0,"x_max":0,"o":"m 323 -292 l 928 628 l 813 699 l 448 128 l 271 699 l 139 653 l 360 -5 l 215 -218 z m 346 781 l 488 781 l 514 933 l 372 933 z m 615 781 l 758 781 l 783 933 l 642 933 z "},"ŷ":{"ha":837,"x_min":0,"x_max":0,"o":"m 323 -292 l 928 628 l 813 699 l 448 128 l 271 699 l 139 653 l 360 -5 l 215 -218 z m 333 823 l 413 753 l 570 926 l 667 755 l 765 808 l 650 1002 l 510 1002 z "},"z":{"ha":871,"x_min":0,"x_max":0,"o":"m 100 134 l 77 0 l 813 0 l 833 116 l 277 116 l 876 547 l 897 674 l 222 674 l 203 558 l 691 558 z "},"ź":{"ha":871,"x_min":0,"x_max":0,"o":"m 100 134 l 77 0 l 813 0 l 833 116 l 277 116 l 876 547 l 897 674 l 222 674 l 203 558 l 691 558 z m 466 831 l 540 753 l 792 955 l 707 1049 z "},"ż":{"ha":871,"x_min":0,"x_max":0,"o":"m 532 933 l 506 781 l 648 781 l 674 933 z m 77 0 l 813 0 l 833 116 l 277 116 l 876 547 l 897 674 l 222 674 l 203 558 l 691 558 l 100 134 z "},"ž":{"ha":871,"x_min":0,"x_max":0,"o":"m 100 134 l 77 0 l 813 0 l 833 116 l 277 116 l 876 547 l 897 674 l 222 674 l 203 558 l 691 558 z m 396 965 l 509 774 l 649 774 l 823 952 l 747 1022 l 588 847 l 491 1021 z "},"ª":{"ha":646,"x_min":0,"x_max":0,"o":"m 347 431 b 547 494 424 431 501 461 l 551 440 l 639 440 l 681 681 b 685 731 684 699 685 715 b 488 881 685 835 614 881 b 288 851 404 881 331 867 l 306 770 b 476 796 342 782 406 796 b 578 719 551 796 578 774 b 577 706 578 715 578 710 b 472 713 548 710 512 713 b 190 548 295 713 190 658 b 347 431 190 459 262 431 z m 304 558 b 488 639 304 606 348 639 b 567 634 521 639 546 637 l 557 578 b 369 517 516 552 441 517 b 304 558 322 517 304 530 z "},"º":{"ha":659,"x_min":0,"x_max":0,"o":"m 410 429 b 709 681 569 429 709 518 b 474 876 709 810 604 876 b 176 624 310 876 176 785 b 410 429 176 492 283 429 z m 292 633 b 462 788 292 733 369 788 b 592 674 543 788 592 750 b 423 519 592 574 513 519 b 292 633 341 519 292 556 z "},"ß":{"ha":1017,"x_min":0,"x_max":0,"o":"m 419 131 l 382 17 b 603 -21 434 -3 509 -21 b 971 311 827 -21 971 77 b 810 508 971 447 902 492 b 982 763 928 545 982 630 b 667 999 982 931 836 999 b 247 689 463 999 288 927 l 128 0 l 268 0 l 383 667 b 657 880 411 824 506 880 b 834 749 775 880 834 838 b 633 549 834 624 754 549 l 540 549 l 521 435 l 626 435 b 823 301 774 435 823 404 b 618 98 823 165 751 98 b 419 131 531 98 471 113 z "},"æ":{"ha":1506,"x_min":0,"x_max":0,"o":"m 376 -21 b 768 102 528 -21 670 38 b 1054 -21 821 20 921 -21 b 1385 53 1177 -21 1270 6 l 1338 162 b 1072 94 1260 128 1167 94 b 851 289 909 94 839 168 l 1425 289 b 1451 421 1439 322 1451 363 b 1156 698 1451 562 1367 698 b 843 572 1026 698 917 652 b 591 698 803 661 715 698 b 280 644 472 698 351 670 l 308 534 b 576 583 367 555 471 583 b 748 442 693 583 748 541 b 746 415 748 433 747 424 b 589 425 699 421 649 425 b 139 160 315 425 139 349 b 376 -21 139 25 249 -21 z m 287 180 b 601 325 287 269 381 325 b 729 319 645 325 690 322 b 726 262 727 301 726 281 b 732 199 726 240 728 218 b 411 93 626 138 509 93 b 287 180 324 93 287 122 z m 866 384 b 1144 585 900 505 1001 585 b 1321 420 1269 585 1319 514 b 1319 384 1321 410 1320 393 z "},"ǽ":{"ha":1498,"x_min":0,"x_max":0,"o":"m 369 -21 b 760 102 520 -21 663 38 b 1047 -21 813 20 913 -21 b 1377 53 1169 -21 1263 6 l 1330 162 b 1065 94 1253 128 1159 94 b 844 289 901 94 831 168 l 1417 289 b 1444 421 1431 322 1444 363 b 1148 698 1444 562 1359 698 b 835 572 1019 698 910 652 b 583 698 796 661 707 698 b 272 644 464 698 343 670 l 301 534 b 568 583 359 555 463 583 b 740 442 685 583 740 541 b 738 415 740 433 740 424 b 581 425 692 421 641 425 b 131 160 307 425 131 349 b 369 -21 131 25 241 -21 z m 279 180 b 594 325 279 269 374 325 b 722 319 638 325 682 322 b 719 262 719 301 719 281 b 724 199 719 240 720 218 b 403 93 619 138 501 93 b 279 180 316 93 279 122 z m 792 831 l 865 753 l 1117 955 l 1033 1049 z m 858 384 b 1136 585 892 505 993 585 b 1313 420 1262 585 1311 514 b 1311 384 1313 410 1313 393 z "},"ð":{"ha":1033,"x_min":0,"x_max":0,"o":"m 492 -17 b 1007 493 788 -17 1007 166 b 810 890 1007 674 934 806 l 881 981 l 803 1037 l 724 935 b 483 990 653 965 572 983 l 454 880 b 648 836 528 873 592 858 l 581 749 l 663 695 l 734 789 b 870 491 829 719 870 614 b 563 644 817 585 700 644 b 147 273 347 644 147 512 b 492 -17 147 68 320 -17 z m 293 285 b 558 526 293 425 408 526 b 839 327 674 526 793 461 b 508 101 790 165 630 101 b 293 285 385 101 293 161 z "},"ø":{"ha":1020,"x_min":0,"x_max":0,"o":"m 87 52 l 151 -29 l 260 51 b 517 -21 324 4 412 -21 b 991 389 790 -21 991 133 b 944 553 991 453 974 508 l 1031 617 l 969 702 l 870 628 b 621 699 806 674 719 699 b 146 286 356 699 146 544 b 188 127 146 224 161 171 z m 292 305 b 606 579 292 470 423 579 b 753 543 665 579 715 567 l 309 216 b 292 305 298 242 292 272 z m 376 136 l 825 466 b 844 373 838 439 844 408 b 531 99 844 210 714 99 b 376 136 467 99 415 112 z "},"ǿ":{"ha":1020,"x_min":0,"x_max":0,"o":"m 87 52 l 151 -29 l 260 51 b 517 -21 324 4 412 -21 b 991 389 790 -21 991 133 b 944 553 991 453 974 508 l 1031 617 l 969 702 l 870 628 b 621 699 806 674 719 699 b 146 286 356 699 146 544 b 188 127 146 224 161 171 z m 292 305 b 606 579 292 470 423 579 b 753 543 665 579 715 567 l 309 216 b 292 305 298 242 292 272 z m 376 136 l 825 466 b 844 373 838 439 844 408 b 531 99 844 210 714 99 b 376 136 467 99 415 112 z m 554 831 l 628 753 l 880 955 l 795 1049 z "},"þ":{"ha":988,"x_min":0,"x_max":0,"o":"m 298 982 l 81 -274 l 220 -274 l 278 65 b 531 -21 328 25 413 -21 b 958 400 772 -21 958 113 b 655 697 958 601 826 697 b 373 613 525 697 426 648 l 437 982 z m 301 195 l 349 476 b 617 577 418 526 518 577 b 809 384 744 577 809 510 b 536 99 809 210 706 99 b 301 195 445 99 370 131 z "},"đ":{"ha":986,"x_min":0,"x_max":0,"o":"m 705 883 l 688 779 l 854 779 l 828 627 b 579 697 771 661 690 697 b 145 274 340 697 145 552 b 456 -21 145 77 269 -21 b 747 77 583 -21 689 37 l 749 0 l 858 0 l 993 779 l 1127 779 l 1144 883 l 1010 883 l 1028 982 l 889 982 l 872 883 z m 292 285 b 574 578 292 463 401 578 b 807 508 656 578 728 554 l 754 203 b 488 98 684 150 582 98 b 292 285 361 98 292 156 z "},"ħ":{"ha":978,"x_min":0,"x_max":0,"o":"m 167 876 l 150 774 l 262 774 l 128 0 l 267 0 l 350 479 b 662 578 390 503 516 578 b 800 461 750 578 800 546 b 795 412 800 447 799 430 l 724 0 l 863 0 l 936 423 b 942 494 940 449 942 472 b 685 698 942 652 828 698 b 371 602 536 698 420 634 l 401 774 l 590 774 l 607 876 l 418 876 l 437 982 l 298 982 l 280 876 z "},"ı":{"ha":398,"x_min":0,"x_max":0,"o":"m 247 674 l 130 0 l 269 0 l 385 674 z "},"ĳ":{"ha":943,"x_min":0,"x_max":0,"o":"m 318 674 l 201 0 l 340 0 l 457 674 z m 336 781 l 475 781 l 501 933 l 363 933 z m 455 -167 l 474 -290 b 809 -3 676 -236 781 -162 l 926 674 l 788 674 l 674 22 b 455 -167 658 -74 574 -123 z m 806 781 l 944 781 l 971 933 l 832 933 z "},"ĸ":{"ha":926,"x_min":0,"x_max":0,"o":"m 560 332 l 769 -23 l 883 44 l 669 408 l 955 608 l 885 702 l 320 309 l 384 674 l 245 674 l 128 0 l 267 0 l 293 149 z "},"ŀ":{"ha":460,"x_min":0,"x_max":0,"o":"m 298 982 l 128 0 l 267 0 l 437 982 z m 423 435 l 577 435 l 606 598 l 451 598 z "},"ł":{"ha":500,"x_min":0,"x_max":0,"o":"m 57 401 l 99 294 l 226 350 l 165 0 l 304 0 l 376 415 l 600 513 l 558 620 l 399 551 l 474 982 l 335 982 l 249 485 z "},"ŉ":{"ha":990,"x_min":0,"x_max":0,"o":"m 94 723 l 210 888 l 235 1033 l 86 1033 l 62 892 l 111 892 l 38 755 z m 128 0 l 267 0 l 350 478 b 669 578 390 502 525 578 b 812 463 764 578 812 547 b 806 406 812 445 810 426 l 736 0 l 875 0 l 948 423 b 955 497 953 450 955 474 b 696 698 955 652 846 698 b 365 598 550 698 430 637 l 361 674 l 245 674 z "},"ŋ":{"ha":999,"x_min":0,"x_max":0,"o":"m 806 406 l 740 22 b 521 -167 723 -74 639 -123 l 540 -290 b 875 -3 742 -236 847 -162 l 948 423 b 955 497 953 450 955 474 b 696 698 955 652 846 698 b 365 598 550 698 430 637 l 361 674 l 245 674 l 128 0 l 267 0 l 350 478 b 669 578 390 502 525 578 b 812 463 764 578 812 547 b 806 406 812 445 810 426 z "},"œ":{"ha":1594,"x_min":0,"x_max":0,"o":"m 486 -21 b 845 131 636 -21 765 34 b 1143 -21 890 31 994 -21 b 1483 55 1270 -21 1377 8 l 1440 164 b 1158 97 1362 131 1274 97 b 938 282 1024 97 942 156 l 1526 282 b 1554 424 1539 312 1554 355 b 1245 698 1554 558 1470 698 b 902 539 1097 698 976 639 b 602 699 850 644 737 699 b 146 285 367 699 146 548 b 486 -21 146 88 290 -21 z m 294 299 b 590 579 294 467 426 579 b 813 378 719 579 813 505 b 511 99 813 213 663 99 b 294 299 374 99 294 171 z m 953 383 b 1235 583 988 504 1096 583 b 1416 413 1351 583 1416 525 b 1414 383 1416 403 1415 393 z "},"ŧ":{"ha":771,"x_min":0,"x_max":0,"o":"m 128 415 l 110 308 l 259 308 l 239 193 b 234 135 236 172 234 153 b 449 -21 234 7 328 -21 b 709 24 547 -21 648 3 l 684 138 b 473 97 628 117 552 97 b 376 170 410 97 376 115 b 380 205 376 180 378 192 l 398 308 l 731 308 l 749 415 l 416 415 l 441 558 l 772 558 l 792 674 l 461 674 l 492 856 l 354 856 l 323 674 l 172 674 l 152 558 l 303 558 l 278 415 z "},"ſ":{"ha":628,"x_min":0,"x_max":0,"o":"m 304 561 l 207 0 l 346 0 l 477 762 b 670 889 494 862 550 889 b 857 861 734 889 796 876 l 895 975 b 677 1008 867 983 772 1008 b 341 776 504 1008 373 963 l 324 674 l 187 674 l 167 561 z "},"ȷ":{"ha":458,"x_min":0,"x_max":0,"o":"m 190 22 b -30 -167 173 -74 88 -123 l -11 -290 b 324 -3 191 -236 297 -162 l 441 674 l 303 674 z "},"π":{"ha":1195,"x_min":0,"x_max":0,"o":"m 772 187 b 767 130 769 165 767 147 b 951 -18 767 17 842 -18 b 1138 20 1042 -18 1138 20 l 1119 130 b 983 99 1119 130 1041 99 b 909 162 935 99 909 111 b 913 204 909 174 910 188 l 976 563 l 1199 563 l 1218 675 l 181 674 l 162 563 l 362 563 l 265 0 l 404 0 l 501 563 l 838 563 z "},"¼":{"ha":1842,"x_min":0,"x_max":0,"o":"m 1563 101 l 1545 -1 l 1653 -1 l 1670 101 l 1769 101 l 1785 194 l 1686 194 l 1742 517 l 1588 517 l 1214 206 l 1196 101 z m 210 376 l 728 376 l 746 478 l 559 478 l 631 894 l 543 894 l 317 840 l 317 742 l 497 779 l 444 478 l 227 478 z m 638 14 l 713 -56 l 1503 822 l 1430 892 z m 1335 194 l 1619 430 l 1578 194 z "},"½":{"ha":1908,"x_min":0,"x_max":0,"o":"m 227 478 l 210 376 l 728 376 l 746 478 l 559 478 l 631 894 l 543 894 l 317 840 l 317 742 l 497 779 l 444 478 z m 638 14 l 713 -56 l 1503 822 l 1430 892 z m 1274 -1 l 1817 -1 l 1833 99 l 1411 99 l 1414 111 b 1568 201 1419 140 1447 166 l 1673 232 b 1873 408 1833 280 1873 323 b 1654 535 1873 492 1799 535 b 1374 481 1549 535 1443 508 l 1400 385 b 1642 435 1472 413 1563 435 b 1746 392 1716 435 1746 422 b 1635 321 1746 366 1728 348 l 1516 286 b 1289 87 1360 239 1304 181 z "},"¾":{"ha":1839,"x_min":0,"x_max":0,"o":"m 212 496 l 181 402 b 432 359 244 376 334 359 b 756 553 622 359 756 407 b 651 661 756 602 723 651 b 763 794 721 676 763 723 b 549 911 763 885 664 911 b 283 867 438 911 336 885 l 301 774 b 536 817 369 797 468 817 b 628 769 604 817 628 797 b 503 691 628 727 608 691 l 365 691 l 349 600 l 495 600 b 624 542 582 600 624 588 b 447 456 624 488 562 456 b 212 496 340 456 266 476 z m 630 16 l 705 -53 l 1494 824 l 1422 894 z m 1206 101 l 1572 101 l 1555 -1 l 1663 -1 l 1680 101 l 1778 101 l 1794 194 l 1696 194 l 1751 517 l 1597 517 l 1224 206 z m 1344 194 l 1629 430 l 1588 194 z "},"_":{"ha":992,"x_min":0,"x_max":0,"o":"m 25 -76 l 6 -189 l 922 -189 l 941 -76 z "},"-":{"ha":565,"x_min":0,"x_max":0,"o":"m 111 422 l 90 301 l 578 301 l 599 422 z "},"–":{"ha":884,"x_min":0,"x_max":0,"o":"m 111 422 l 92 311 l 899 311 l 919 422 z "},"—":{"ha":1292,"x_min":0,"x_max":0,"o":"m 111 422 l 93 319 l 1309 319 l 1327 422 z "},"(":{"ha":469,"x_min":0,"x_max":0,"o":"m 304 -115 l 423 -50 b 321 349 374 51 321 178 b 579 890 321 594 418 743 l 497 994 b 179 342 321 850 179 665 b 304 -115 179 159 226 24 z "},")":{"ha":472,"x_min":0,"x_max":0,"o":"m 309 518 b 46 -17 309 306 208 137 l 130 -120 b 450 540 323 43 450 223 b 323 988 450 739 383 894 l 206 924 b 309 518 260 823 309 699 z "},"[":{"ha":523,"x_min":0,"x_max":0,"o":"m 315 1010 l 123 -106 l 435 -106 l 454 6 l 278 6 l 432 898 l 608 898 l 627 1010 z "},"]":{"ha":541,"x_min":0,"x_max":0,"o":"m 378 -106 l 570 1009 l 258 1009 l 239 898 l 415 898 l 261 6 l 85 6 l 66 -106 z "},"{":{"ha":599,"x_min":0,"x_max":0,"o":"m 509 -103 l 528 9 b 366 76 404 9 366 27 b 369 103 366 84 367 94 l 404 308 b 407 340 406 319 407 329 b 331 440 407 393 378 426 b 446 553 388 457 434 482 l 481 760 b 677 876 497 853 535 876 l 696 985 b 352 795 501 985 383 977 l 314 574 b 179 491 306 524 251 499 l 162 385 b 268 321 231 383 268 368 b 267 300 268 315 267 307 l 232 101 b 226 44 228 80 226 60 b 509 -103 226 -77 334 -103 z "},"}":{"ha":599,"x_min":0,"x_max":0,"o":"m 72 9 l 53 -103 b 397 88 247 -103 367 -94 l 435 303 b 569 387 444 358 493 379 l 587 493 b 481 560 521 497 481 514 b 482 577 481 565 481 571 l 519 792 b 526 847 523 811 526 830 b 241 985 526 963 408 985 l 222 876 b 384 810 348 876 384 858 b 381 782 384 801 383 792 l 344 567 b 342 537 342 556 342 547 b 418 442 342 483 373 453 b 302 322 358 424 315 392 l 267 117 b 72 9 252 31 210 9 z "},"#":{"ha":1087,"x_min":0,"x_max":0,"o":"m 197 3 l 315 -21 l 418 237 l 665 237 l 572 3 l 692 -21 l 794 237 l 1032 237 l 1050 342 l 836 342 l 929 576 l 1151 576 l 1169 682 l 972 682 l 1056 893 l 931 914 l 840 682 l 596 682 l 680 893 l 556 914 l 464 682 l 226 682 l 208 576 l 422 576 l 331 342 l 108 342 l 89 237 l 288 237 z m 460 342 l 553 576 l 798 576 l 706 342 z "},"%":{"ha":1188,"x_min":0,"x_max":0,"o":"m 433 878 b 163 626 306 878 163 806 b 372 440 163 499 258 440 b 645 690 506 440 645 516 b 433 878 645 819 542 878 z m 223 55 l 298 -17 l 1123 815 l 1049 885 z m 281 638 b 422 778 281 733 347 778 b 528 678 485 778 528 748 b 384 540 528 583 460 540 b 281 638 317 540 281 571 z m 691 165 b 899 -21 691 38 785 -21 b 1173 229 1033 -21 1173 55 b 960 417 1173 358 1069 417 b 691 165 833 417 691 345 z m 808 177 b 949 317 808 272 874 317 b 1055 217 1013 317 1055 287 b 911 78 1055 122 988 78 b 808 177 845 78 808 110 z "},"‰":{"ha":1733,"x_min":0,"x_max":0,"o":"m 433 878 b 163 626 305 878 163 806 b 371 440 163 499 257 440 b 644 690 506 440 644 516 b 433 878 644 819 542 878 z m 222 55 l 297 -17 l 1122 815 l 1049 885 z m 280 638 b 421 778 280 733 346 778 b 526 678 485 778 526 748 b 383 540 526 583 460 540 b 280 638 317 540 280 571 z m 690 165 b 899 -21 690 38 785 -21 b 1172 229 1033 -21 1172 55 b 960 417 1172 358 1069 417 b 690 165 832 417 690 345 z m 807 177 b 949 317 807 272 873 317 b 1054 217 1012 317 1054 287 b 910 78 1054 122 987 78 b 807 177 844 78 807 110 z m 1237 165 b 1445 -21 1237 38 1331 -21 b 1719 229 1579 -21 1719 55 b 1506 417 1719 358 1615 417 b 1237 165 1379 417 1237 345 z m 1353 177 b 1495 317 1353 272 1419 317 b 1601 217 1558 317 1601 287 b 1457 78 1601 122 1534 78 b 1353 177 1390 78 1353 110 z "},"'":{"ha":288,"x_min":0,"x_max":0,"o":"m 235 896 l 199 577 l 290 577 l 363 896 z "},"\"":{"ha":499,"x_min":0,"x_max":0,"o":"m 470 896 l 341 896 l 306 577 l 397 577 z "},"‘":{"ha":306,"x_min":0,"x_max":0,"o":"m 386 872 l 329 903 l 213 724 l 186 576 l 335 576 l 360 719 l 310 719 z "},"’":{"ha":306,"x_min":0,"x_max":0,"o":"m 183 601 l 240 569 l 357 749 l 383 897 l 235 897 l 210 753 l 259 753 z "},"“":{"ha":532,"x_min":0,"x_max":0,"o":"m 503 871 l 446 902 l 443 898 l 436 902 l 319 723 l 293 575 l 451 575 l 476 718 l 427 718 z "},"”":{"ha":532,"x_min":0,"x_max":0,"o":"m 265 601 l 322 569 l 324 574 l 331 569 l 448 749 l 474 897 l 316 897 l 291 753 l 340 753 z "},"‚":{"ha":296,"x_min":0,"x_max":0,"o":"m 19 -175 l 76 -206 l 193 -27 l 219 121 l 71 121 l 46 -22 l 95 -22 z "},"„":{"ha":521,"x_min":0,"x_max":0,"o":"m 133 -165 l 190 -197 l 192 -193 l 199 -197 l 315 -17 l 342 131 l 184 131 l 159 -12 l 208 -12 z "},"‹":{"ha":502,"x_min":0,"x_max":0,"o":"m 120 338 l 351 -27 l 467 53 l 290 326 l 562 605 l 465 701 z "},"›":{"ha":487,"x_min":0,"x_max":0,"o":"m 503 343 l 272 708 l 156 628 l 333 356 l 62 76 l 159 -19 z "},"«":{"ha":816,"x_min":0,"x_max":0,"o":"m 110 338 l 333 -27 l 451 50 l 278 328 l 542 604 l 444 701 z m 438 338 l 669 -27 l 786 51 l 608 328 l 878 603 l 781 700 z "},"»":{"ha":816,"x_min":0,"x_max":0,"o":"m 844 343 l 620 708 l 502 631 l 675 353 l 410 77 l 508 -19 z m 76 78 l 172 -19 l 515 343 l 284 708 l 167 631 l 345 353 z "},"*":{"ha":508,"x_min":0,"x_max":0,"o":"m 323 631 l 299 490 l 385 490 l 410 633 l 524 560 l 573 634 l 463 704 l 601 777 l 566 853 l 436 784 l 460 921 l 373 921 l 348 778 l 232 853 l 182 778 l 292 708 l 149 633 l 185 558 z "},"†":{"ha":576,"x_min":0,"x_max":0,"o":"m 323 586 l 217 -95 l 327 -95 l 456 586 l 608 586 l 626 692 l 474 692 l 517 938 l 383 938 l 341 692 l 189 692 l 171 586 z "},"‡":{"ha":577,"x_min":0,"x_max":0,"o":"m 277 291 l 217 -95 l 327 -95 l 401 291 l 557 291 l 576 396 l 420 396 l 456 586 l 608 586 l 626 692 l 474 692 l 517 938 l 383 938 l 341 692 l 189 692 l 171 586 l 323 586 l 294 396 l 138 396 l 119 291 z "},".":{"ha":308,"x_min":0,"x_max":0,"o":"m 105 163 l 77 0 l 231 0 l 260 163 z "},",":{"ha":306,"x_min":0,"x_max":0,"o":"m 103 -215 l 224 -12 l 251 145 l 102 145 l 76 -8 l 126 -8 l 44 -185 z "},":":{"ha":308,"x_min":0,"x_max":0,"o":"m 193 674 l 165 511 l 319 511 l 348 674 z m 77 0 l 231 0 l 260 163 l 105 163 z "},";":{"ha":306,"x_min":0,"x_max":0,"o":"m 188 674 l 160 511 l 315 511 l 343 674 z m 44 -185 l 103 -215 l 224 -12 l 251 145 l 102 145 l 76 -8 l 126 -8 z "},"…":{"ha":907,"x_min":0,"x_max":0,"o":"m 570 163 l 381 163 l 353 0 l 542 0 z "},"!":{"ha":467,"x_min":0,"x_max":0,"o":"m 270 616 l 224 263 l 334 263 l 409 613 l 458 896 l 319 896 z m 161 0 l 306 0 l 333 156 l 188 156 z "},"¡":{"ha":467,"x_min":0,"x_max":0,"o":"m 331 156 l 377 510 l 267 510 l 192 159 l 142 -124 l 282 -124 z m 268 617 l 413 617 l 440 772 l 295 772 z "},"?":{"ha":781,"x_min":0,"x_max":0,"o":"m 289 156 l 262 0 l 407 0 l 434 156 z m 178 835 l 217 718 b 546 801 331 767 449 801 b 700 703 628 801 700 775 b 499 526 700 622 619 582 b 318 327 391 478 335 426 l 308 269 l 449 269 l 456 304 b 566 415 464 354 501 384 b 847 711 724 485 847 542 b 553 922 847 856 734 922 b 178 835 402 922 270 878 z "},"¿":{"ha":775,"x_min":0,"x_max":0,"o":"m 631 617 l 658 772 l 513 772 l 486 617 z m 73 61 b 367 -149 73 -84 186 -149 b 742 -63 518 -149 650 -106 l 703 54 b 374 -28 590 6 471 -28 b 220 69 292 -28 220 -3 b 422 246 220 151 301 190 b 602 445 529 294 585 346 l 612 503 l 471 503 l 465 468 b 354 358 456 418 419 388 b 73 61 197 287 73 230 z "},"/":{"ha":568,"x_min":0,"x_max":0,"o":"m -13 -187 l 101 -237 l 723 1006 l 609 1058 z "},"\\":{"ha":576,"x_min":0,"x_max":0,"o":"m 197 1029 l 398 -237 l 519 -215 l 318 1050 z "},"⁄":{"ha":441,"x_min":0,"x_max":0,"o":"m -130 16 l -55 -53 l 735 824 l 662 894 z "},"|":{"ha":435,"x_min":0,"x_max":0,"o":"m 338 1070 l 103 -292 l 230 -292 l 465 1070 z "},"¦":{"ha":435,"x_min":0,"x_max":0,"o":"m 209 321 l 103 -292 l 230 -292 l 335 321 z m 236 476 l 363 476 l 465 1070 l 338 1070 z "},"@":{"ha":1482,"x_min":0,"x_max":0,"o":"m 697 -191 b 1110 -134 878 -191 1010 -162 l 1083 -37 b 716 -89 1004 -59 876 -89 b 294 284 465 -89 294 17 b 903 831 294 644 569 831 b 1333 474 1158 831 1333 722 b 1171 162 1333 247 1239 162 b 1114 206 1133 162 1114 176 b 1115 222 1114 211 1115 216 l 1144 398 b 1150 467 1148 423 1150 446 b 876 678 1150 622 1043 678 b 587 622 764 678 665 653 l 613 528 b 867 579 663 548 768 579 b 1033 445 983 579 1033 542 b 894 451 985 449 940 451 b 467 220 626 451 467 373 b 681 59 467 90 580 59 b 1003 160 808 59 921 106 b 1145 58 1015 99 1068 58 b 1451 492 1283 58 1451 152 b 911 933 1451 806 1207 933 b 174 269 540 933 174 740 b 697 -191 174 -64 414 -191 z m 595 231 b 922 360 595 303 681 360 b 1022 358 950 360 985 359 l 1008 264 b 707 158 920 202 806 158 b 595 231 631 158 595 185 z "},"&":{"ha":1160,"x_min":0,"x_max":0,"o":"m 475 -21 b 853 99 615 -21 749 11 b 1012 -21 902 63 955 23 l 1093 83 b 943 197 1039 124 988 161 b 1062 504 997 273 1038 374 l 932 504 b 842 273 911 405 880 330 b 489 683 587 474 489 569 b 664 805 489 763 553 805 b 872 765 726 805 813 783 l 913 878 b 669 922 847 901 752 922 b 343 667 513 922 343 866 b 412 483 343 604 362 548 b 167 198 249 419 167 325 b 475 -21 167 24 314 -21 z m 316 215 b 491 397 316 301 385 357 b 753 176 553 337 638 267 b 492 101 668 113 572 101 b 316 215 383 101 316 131 z "},"§":{"ha":964,"x_min":0,"x_max":0,"o":"m 449 -201 b 862 72 705 -201 862 -124 b 805 206 862 135 840 176 b 943 410 889 248 943 308 b 411 692 943 704 411 508 b 646 812 411 763 488 812 b 924 766 738 812 831 794 l 969 874 b 659 922 900 897 781 922 b 275 674 446 922 275 855 b 350 530 275 602 305 558 b 193 328 263 494 193 429 b 726 52 193 41 726 251 b 460 -85 726 -35 642 -85 b 156 -27 333 -85 244 -62 l 108 -137 b 449 -201 169 -167 285 -201 z m 331 355 b 488 488 331 417 389 458 b 812 385 636 468 812 492 b 690 253 812 328 765 285 b 331 355 538 287 331 249 z "},"¶":{"ha":997,"x_min":0,"x_max":0,"o":"m 444 330 l 533 330 l 445 -176 l 579 -176 l 767 913 l 549 913 b 163 565 294 913 163 781 b 444 330 163 410 273 330 z m 679 -176 l 813 -176 l 1001 913 l 867 913 z "},"·":{"ha":308,"x_min":0,"x_max":0,"o":"m 172 568 l 144 405 l 299 405 l 327 568 z "},"•":{"ha":379,"x_min":0,"x_max":0,"o":"m 176 533 l 138 314 l 350 314 l 388 533 z "},"+":{"ha":888,"x_min":0,"x_max":0,"o":"m 437 353 l 388 72 l 524 72 l 573 353 l 879 353 l 900 474 l 594 474 l 638 726 l 501 726 l 458 474 l 151 474 l 131 353 z "},"−":{"ha":846,"x_min":0,"x_max":0,"o":"m 145 470 l 125 355 l 842 355 l 863 470 z "},"±":{"ha":846,"x_min":0,"x_max":0,"o":"m 440 491 l 396 238 l 532 238 l 576 491 l 867 491 l 887 612 l 597 612 l 635 835 l 499 835 l 461 612 l 169 612 l 149 491 z m 69 28 l 786 28 l 808 149 l 90 149 z "},"÷":{"ha":846,"x_min":0,"x_max":0,"o":"m 390 240 l 364 90 l 512 90 l 538 240 z m 125 355 l 842 355 l 863 470 l 145 470 z m 448 578 l 596 578 l 622 727 l 474 727 z "},"×":{"ha":783,"x_min":0,"x_max":0,"o":"m 122 182 l 206 90 l 454 302 l 633 92 l 734 178 l 554 382 l 794 580 l 713 674 l 478 471 l 306 668 l 208 583 l 375 393 z "},"=":{"ha":878,"x_min":0,"x_max":0,"o":"m 124 348 l 103 227 l 852 227 l 873 348 z m 147 481 l 896 481 l 917 601 l 168 601 z "},"<":{"ha":938,"x_min":0,"x_max":0,"o":"m 165 322 l 790 3 l 853 117 l 296 390 l 954 649 l 913 765 l 190 470 z "},">":{"ha":935,"x_min":0,"x_max":0,"o":"m 928 453 l 303 772 l 240 658 l 797 385 l 138 126 l 180 10 l 902 305 z "},"≤":{"ha":922,"x_min":0,"x_max":0,"o":"m 188 456 l 829 204 l 880 319 l 331 526 l 950 719 l 921 833 l 214 605 z m 110 0 l 827 0 l 847 120 l 130 120 z "},"≥":{"ha":939,"x_min":0,"x_max":0,"o":"m 165 326 l 199 209 l 919 442 l 945 592 l 310 838 l 260 726 l 799 525 z m 125 0 l 842 0 l 863 120 l 146 120 z "},"≈":{"ha":898,"x_min":0,"x_max":0,"o":"m 499 224 b 646 187 546 206 590 187 b 874 253 738 187 796 210 l 833 355 b 665 310 781 326 730 310 b 525 344 612 310 570 327 b 360 381 478 363 428 381 b 117 315 263 381 167 341 l 149 208 b 342 258 201 233 271 258 b 499 224 406 258 453 241 z m 162 575 l 194 467 b 386 518 246 493 316 518 b 536 487 447 518 493 503 b 690 447 586 467 632 447 b 919 513 783 447 841 469 l 878 615 b 710 569 825 586 775 569 b 569 605 657 569 615 587 b 406 641 522 623 473 641 b 162 575 308 641 212 601 z "},"≠":{"ha":878,"x_min":0,"x_max":0,"o":"m 278 97 l 390 61 l 474 227 l 852 227 l 872 344 l 533 344 l 604 485 l 897 485 l 917 601 l 664 601 l 731 733 l 619 770 l 533 601 l 168 601 l 148 485 l 475 485 l 403 344 l 124 344 l 103 227 l 344 227 z "},"¬":{"ha":864,"x_min":0,"x_max":0,"o":"m 736 308 l 710 158 l 827 158 l 872 416 l 136 416 l 117 308 z "},"←":{"ha":1090,"x_min":0,"x_max":0,"o":"m 183 402 l 402 134 l 499 217 l 355 394 l 1078 394 l 1099 513 l 376 513 l 581 687 l 511 772 l 201 504 z "},"↑":{"ha":831,"x_min":0,"x_max":0,"o":"m 481 723 l 356 0 l 476 0 l 600 722 l 744 548 l 844 633 l 622 897 l 519 897 l 206 631 l 274 548 z "},"→":{"ha":1090,"x_min":0,"x_max":0,"o":"m 665 219 l 734 135 l 1045 403 l 1063 505 l 845 773 l 745 688 l 890 514 l 168 514 l 147 395 l 870 395 z "},"↓":{"ha":831,"x_min":0,"x_max":0,"o":"m 142 265 l 365 0 l 467 0 l 781 264 l 710 349 l 506 174 l 631 897 l 511 897 l 387 174 l 240 349 z "},"∂":{"ha":1117,"x_min":0,"x_max":0,"o":"m 535 -27 b 1086 518 846 -27 1086 142 b 688 921 1086 767 953 921 b 296 824 513 921 372 867 l 340 715 b 677 801 457 770 571 801 b 947 508 851 801 947 701 b 946 478 947 498 947 488 b 616 593 883 536 781 593 b 183 237 447 593 183 513 b 535 -27 183 49 340 -27 z m 328 251 b 614 475 328 403 459 475 b 922 349 749 475 843 426 b 547 92 868 167 699 92 b 328 251 415 92 328 144 z "},"∆":{"ha":1211,"x_min":0,"x_max":0,"o":"m 48 0 l 1163 0 l 856 982 l 690 982 z m 278 122 l 758 858 l 985 122 z "},"∏":{"ha":1078,"x_min":0,"x_max":0,"o":"m 312 913 l 123 -178 l 260 -178 l 429 801 l 926 801 l 757 -178 l 894 -178 l 1083 913 z "},"∑":{"ha":997,"x_min":0,"x_max":0,"o":"m 108 -24 l 83 -169 l 903 -169 l 924 -55 l 264 -55 l 763 374 l 413 799 l 1064 799 l 1084 913 l 271 913 l 248 785 l 588 382 z "},"µ":{"ha":1035,"x_min":0,"x_max":0,"o":"m 258 674 l 94 -274 l 233 -274 l 267 -82 b 280 25 273 -43 278 -3 b 444 -21 322 -8 379 -21 b 783 84 581 -21 706 34 l 785 0 l 894 0 l 1011 674 l 872 674 l 792 210 b 473 98 744 171 603 98 b 327 232 375 98 327 127 b 338 335 327 260 331 295 l 397 674 z "},"∕":{"ha":524,"x_min":0,"x_max":0,"o":"m -13 -187 l 101 -237 l 723 1006 l 609 1058 z "},"√":{"ha":956,"x_min":0,"x_max":0,"o":"m 254 467 l 377 0 l 544 0 l 1127 922 l 1024 983 l 478 113 l 363 577 l 138 577 l 118 467 z "},"∞":{"ha":1324,"x_min":0,"x_max":0,"o":"m 1163 367 b 987 183 1163 263 1096 183 b 833 261 914 183 869 209 l 785 329 l 870 417 b 1040 494 928 476 981 494 b 1163 367 1124 494 1163 441 z m 153 297 b 387 79 153 161 243 79 b 665 212 492 79 570 119 l 699 246 l 724 210 b 978 79 792 117 863 79 b 1288 376 1160 79 1288 192 b 1056 600 1288 519 1194 600 b 782 474 940 600 863 559 l 726 415 l 680 481 b 458 600 622 567 561 600 b 153 297 301 600 153 490 z m 278 311 b 450 494 278 412 345 494 b 567 429 496 494 529 483 l 640 330 l 565 262 b 402 183 517 218 469 183 b 278 311 318 183 278 237 z "},"∫":{"ha":842,"x_min":0,"x_max":0,"o":"m -17 -163 l -51 -274 b 156 -308 -31 -281 60 -308 b 476 -80 334 -308 445 -262 l 624 777 b 804 901 642 876 692 901 b 976 874 869 901 910 891 l 1010 984 b 806 1017 992 989 894 1017 b 490 789 640 1017 522 972 l 344 -60 b 165 -192 326 -166 278 -192 b -17 -163 97 -192 46 -181 z "},"$":{"ha":980,"x_min":0,"x_max":0,"o":"m 356 44 l 329 -110 l 417 -110 l 442 36 b 489 35 457 35 473 35 b 558 37 513 35 535 35 l 533 -110 l 621 -110 l 648 46 b 941 325 833 75 941 162 b 726 502 941 435 856 480 l 765 725 b 913 689 819 715 869 701 l 958 792 b 783 835 910 808 850 824 l 812 1001 l 724 1001 l 697 845 b 628 847 675 847 652 847 b 583 846 613 847 597 847 l 609 1001 l 520 1001 l 492 838 b 221 599 331 815 221 742 b 420 419 221 492 296 442 l 375 156 b 160 222 285 170 210 198 l 116 117 b 356 44 169 88 251 58 z m 351 613 b 474 727 351 671 391 709 l 441 538 b 351 613 381 552 351 574 z m 462 147 l 506 407 b 541 404 518 406 529 406 l 620 397 l 576 149 b 500 146 553 147 527 146 b 462 147 487 146 474 147 z m 526 525 l 563 738 b 621 740 581 740 601 740 b 678 737 640 740 659 739 l 640 514 b 584 519 622 516 603 517 b 526 525 564 521 545 522 z m 668 163 l 706 385 b 817 301 776 371 817 349 b 668 163 817 229 760 185 z "},"¢":{"ha":892,"x_min":0,"x_max":0,"o":"m 149 306 b 356 51 149 170 225 85 l 330 -94 l 423 -94 l 445 36 b 505 33 464 34 484 33 b 542 34 517 33 530 33 l 520 -94 l 613 -94 l 637 44 b 847 116 705 57 772 80 l 803 212 b 657 160 759 192 710 172 l 728 570 b 853 530 768 560 810 547 l 903 632 b 747 681 857 651 808 669 l 772 824 l 678 824 l 656 691 b 615 692 642 692 629 692 b 558 689 595 692 576 691 l 581 824 l 488 824 l 463 674 b 149 306 281 631 149 505 z m 281 319 b 442 554 281 435 345 515 l 375 167 b 281 319 314 193 281 242 z m 465 146 l 539 580 b 608 585 562 583 584 585 b 637 583 617 585 627 584 l 561 144 b 526 142 549 142 538 142 b 465 146 504 142 483 144 z "},"£":{"ha":899,"x_min":0,"x_max":0,"o":"m 153 113 l 134 0 l 830 0 l 849 108 l 299 108 l 395 386 l 828 386 l 846 491 l 431 491 l 487 653 b 708 805 533 786 629 805 b 928 759 781 805 866 786 l 976 865 b 718 922 915 892 826 922 b 354 674 567 922 429 882 l 289 491 l 161 491 l 144 386 l 251 386 z "},"¤":{"ha":913,"x_min":0,"x_max":0,"o":"m 213 95 l 331 199 b 497 155 375 170 432 155 b 657 190 556 155 611 167 l 743 93 l 833 167 l 753 260 b 824 452 801 314 824 381 b 785 581 824 502 810 546 l 892 673 l 823 756 l 701 651 b 567 680 664 669 618 680 b 416 650 513 680 462 670 l 333 751 l 242 678 l 317 585 b 235 385 267 535 235 467 b 260 277 235 344 244 308 l 140 178 z m 357 391 b 556 582 358 499 439 582 b 703 444 654 582 703 523 b 505 254 703 342 630 254 b 357 391 410 254 357 303 z "},"¥":{"ha":1106,"x_min":0,"x_max":0,"o":"m 278 497 l 260 389 l 464 389 l 524 293 l 243 293 l 225 185 l 533 185 l 500 0 l 642 0 l 674 185 l 981 185 l 999 293 l 718 293 l 808 389 l 1015 389 l 1034 497 l 910 497 l 1219 825 l 1126 916 l 626 384 l 296 917 l 180 845 l 397 497 z "},"€":{"ha":1106,"x_min":0,"x_max":0,"o":"m 651 -27 b 1044 83 796 -27 926 14 l 984 199 b 666 101 897 145 787 101 b 399 294 516 101 424 158 l 772 294 l 790 395 l 390 395 b 403 492 392 430 396 462 l 806 492 l 824 594 l 442 594 b 780 794 508 720 632 794 b 1063 723 879 794 976 764 l 1122 845 b 788 922 1039 885 942 922 b 280 594 590 922 368 824 l 160 594 l 142 492 l 251 492 b 240 395 245 462 242 429 l 126 395 l 108 294 l 244 294 b 651 -27 271 66 434 -27 z "},"ƒ":{"ha":823,"x_min":0,"x_max":0,"o":"m -103 -146 l -140 -254 b 59 -290 -116 -264 -39 -290 b 401 -42 258 -290 363 -196 l 504 361 l 824 361 l 842 467 l 533 467 l 582 669 b 765 800 607 773 662 800 b 940 776 823 800 876 792 l 978 883 b 771 913 920 898 851 913 b 450 687 599 913 496 872 l 395 467 l 192 467 l 174 361 l 367 361 l 271 -23 b 65 -176 244 -128 173 -176 b -103 -146 4 -176 -50 -165 z "},"₱":{"ha":1185,"x_min":0,"x_max":0,"o":"m 224 0 l 359 0 l 397 219 l 672 219 b 1099 413 897 219 1037 281 l 1222 413 l 1239 511 l 1129 511 b 1137 601 1133 540 1136 573 l 1255 601 l 1272 699 l 1127 699 b 808 896 1096 826 988 896 l 378 896 l 344 699 l 211 699 l 194 601 l 328 601 l 312 511 l 178 511 l 162 413 l 295 413 z m 416 328 l 431 413 l 939 413 b 690 328 892 361 814 328 z m 448 511 l 463 601 l 1000 601 b 990 511 1000 571 997 538 z m 481 699 l 496 788 l 787 788 b 981 699 890 788 952 759 z "},"^":{"ha":721,"x_min":0,"x_max":0,"o":"m 147 572 l 242 491 l 508 806 l 659 502 l 769 560 l 595 896 l 431 896 z "},"~":{"ha":813,"x_min":0,"x_max":0,"o":"m 335 349 b 438 301 378 349 403 325 b 571 256 480 272 522 256 b 813 365 666 256 732 292 l 751 451 b 596 374 709 415 658 374 b 510 415 560 374 543 390 b 346 470 467 447 430 470 b 131 382 260 470 181 419 l 178 287 b 335 349 215 311 272 349 z "},"´":{"ha":552,"x_min":0,"x_max":0,"o":"m 283 1081 l 332 983 l 651 1131 l 599 1240 z "},"`":{"ha":521,"x_min":0,"x_max":0,"o":"m 292 1136 l 545 990 l 612 1084 l 365 1244 z "},"˝":{"ha":790,"x_min":0,"x_max":0,"o":"m 311 1058 l 390 983 l 647 1199 l 564 1287 z m 610 1072 l 680 989 l 953 1183 l 881 1278 z "},"ˆ":{"ha":672,"x_min":0,"x_max":0,"o":"m 280 1065 l 355 985 l 538 1131 l 672 985 l 759 1060 l 601 1219 l 492 1219 z "},"ˇ":{"ha":669,"x_min":0,"x_max":0,"o":"m 301 1173 l 459 1018 l 565 1018 l 774 1174 l 701 1250 l 520 1106 l 389 1249 z "},"˘":{"ha":653,"x_min":0,"x_max":0,"o":"m 413 1210 l 302 1195 b 301 1169 301 1185 301 1177 b 497 990 301 1061 365 990 b 763 1195 646 990 731 1078 l 649 1210 b 508 1090 614 1108 560 1090 b 413 1204 458 1090 413 1108 z "},"˜":{"ha":728,"x_min":0,"x_max":0,"o":"m 533 1047 b 646 1008 563 1027 595 1008 b 837 1149 714 1008 782 1040 l 748 1192 b 660 1113 717 1134 690 1113 b 590 1143 635 1113 617 1125 b 463 1192 551 1168 515 1192 b 275 1055 388 1192 320 1151 l 363 1011 b 455 1085 390 1056 416 1085 b 533 1047 482 1085 501 1069 z "},"¯":{"ha":640,"x_min":0,"x_max":0,"o":"m 292 1137 l 274 1029 l 721 1029 l 740 1137 z "},"¨":{"ha":664,"x_min":0,"x_max":0,"o":"m 319 1155 l 294 1013 l 443 1013 l 468 1155 z m 569 1013 l 719 1013 l 743 1155 l 594 1155 z "},"˙":{"ha":342,"x_min":0,"x_max":0,"o":"m 296 1155 l 271 1013 l 419 1013 l 444 1155 z "},"˚":{"ha":553,"x_min":0,"x_max":0,"o":"m 449 969 b 652 1140 567 969 652 1044 b 491 1276 651 1222 589 1276 b 289 1103 372 1276 289 1199 b 449 969 289 1025 346 969 z m 388 1114 b 483 1196 388 1158 426 1196 b 551 1133 532 1196 551 1167 b 458 1050 551 1087 511 1050 b 388 1114 408 1050 388 1078 z "},"¸":{"ha":550,"x_min":0,"x_max":0,"o":"m 93 -174 l 62 -264 b 212 -290 90 -276 147 -290 b 429 -117 361 -290 429 -228 b 209 81 429 -27 365 38 l 148 9 b 314 -120 281 -31 314 -81 b 219 -195 314 -167 280 -195 b 93 -174 176 -195 128 -185 z "},"˛":{"ha":580,"x_min":0,"x_max":0,"o":"m 436 19 l 358 83 b 84 -162 169 15 84 -58 b 245 -290 84 -243 144 -290 b 410 -261 308 -290 368 -275 l 390 -170 b 262 -194 344 -185 306 -194 b 203 -143 224 -194 203 -181 b 436 19 203 -97 250 -43 z "},"©":{"ha":1215,"x_min":0,"x_max":0,"o":"m 685 -25 b 1187 444 992 -25 1187 170 b 685 912 1187 717 986 912 b 181 444 381 912 181 717 b 685 -25 181 170 374 -25 z m 282 444 b 685 819 282 658 432 819 b 1086 444 938 819 1086 658 b 685 68 1086 229 938 68 b 282 444 432 68 282 229 z m 405 441 b 681 189 405 276 517 189 b 911 260 752 189 847 213 l 865 340 b 688 283 815 308 753 283 b 518 438 588 283 518 331 b 691 603 518 554 592 603 b 859 558 735 603 796 591 l 894 644 b 686 695 841 674 772 695 b 405 441 531 695 405 608 z "},"®":{"ha":728,"x_min":0,"x_max":0,"o":"m 495 626 l 420 626 l 420 691 l 495 691 b 539 657 524 691 539 680 b 495 626 539 635 528 626 z m 153 620 b 470 323 153 447 274 323 b 790 620 666 323 790 447 b 470 915 790 793 663 915 b 153 620 278 915 153 793 z m 231 620 b 470 846 231 743 309 846 b 709 620 631 846 709 743 b 470 394 709 496 631 394 b 231 620 310 394 231 496 z m 345 498 l 420 498 l 420 569 l 488 569 b 503 569 494 569 499 569 l 538 487 l 606 510 l 574 583 b 613 656 599 599 613 624 b 497 747 613 717 573 747 l 345 747 z "},"™":{"ha":1455,"x_min":0,"x_max":0,"o":"m 774 896 l 774 443 l 874 443 l 874 811 l 1034 498 l 1172 498 l 1325 816 l 1325 443 l 1425 443 l 1425 896 l 1263 896 l 1106 572 l 944 896 z m 165 811 l 377 811 l 377 443 l 480 443 l 480 811 l 669 811 l 669 896 l 165 896 z "},"°":{"ha":636,"x_min":0,"x_max":0,"o":"m 435 447 b 692 681 592 447 692 541 b 435 915 692 822 589 915 b 180 681 283 915 180 822 b 435 447 180 541 279 447 z m 294 681 b 435 820 294 756 343 820 b 576 681 527 820 576 756 b 435 543 576 607 527 543 b 294 681 343 543 294 607 z "},"◊":{"ha":965,"x_min":0,"x_max":0,"o":"m 185 439 l 400 0 l 567 0 l 932 436 l 720 896 l 553 896 z m 337 430 l 624 799 l 785 447 l 497 94 z "},"₹":{"ha":1031,"x_min":0,"x_max":0,"o":"m 600 271 l 686 -27 l 817 17 l 730 306 b 919 525 830 348 896 421 l 1042 525 l 1061 635 l 927 635 b 843 785 923 711 889 763 l 1087 785 l 1106 897 l 317 897 l 297 785 l 564 785 b 787 635 705 785 777 729 l 272 635 l 252 525 l 776 525 b 492 376 747 435 662 376 l 226 376 l 207 264 l 488 264 b 600 271 527 264 565 266 z "},"ﬀ":{"ha":1276,"x_min":0,"x_max":0,"o":"m 294 561 l 198 0 l 336 0 l 433 561 l 869 561 l 773 0 l 912 0 l 1008 561 l 1357 561 l 1376 674 l 1028 674 l 1043 762 b 1236 889 1060 862 1116 889 b 1422 861 1299 889 1361 876 l 1461 975 b 1242 1008 1433 983 1337 1008 b 906 776 1070 1008 938 963 l 889 674 l 453 674 l 467 754 b 647 875 483 849 535 875 b 819 847 705 875 763 862 l 858 961 b 653 994 831 969 737 994 b 331 769 489 994 360 949 l 315 674 l 178 674 l 158 561 z "},"ﬁ":{"ha":1012,"x_min":0,"x_max":0,"o":"m 294 561 l 198 0 l 336 0 l 433 561 l 842 561 l 745 0 l 883 0 l 1000 674 l 453 674 l 468 762 b 690 889 485 863 551 889 b 910 861 765 889 842 877 l 947 975 b 697 1008 890 990 794 1008 b 331 776 506 1008 365 963 l 315 674 l 178 674 l 158 561 z "},"ﬂ":{"ha":1054,"x_min":0,"x_max":0,"o":"m 294 561 l 198 0 l 336 0 l 433 561 l 734 561 l 753 674 l 453 674 l 468 762 b 640 889 484 862 533 889 b 807 861 697 889 752 876 l 846 975 b 647 1008 804 988 723 1008 b 331 776 485 1008 362 963 l 315 674 l 178 674 l 158 561 z m 788 0 l 926 0 l 1096 982 l 957 982 z "},"ﬃ":{"ha":1587,"x_min":0,"x_max":0,"o":"m 294 561 l 198 0 l 336 0 l 433 561 l 869 561 l 773 0 l 912 0 l 1008 561 l 1417 561 l 1320 0 l 1459 0 l 1576 674 l 1028 674 l 1043 762 b 1265 889 1060 863 1126 889 b 1485 861 1341 889 1417 877 l 1523 975 b 1272 1008 1465 990 1369 1008 b 906 776 1081 1008 940 963 l 889 674 l 453 674 l 467 754 b 647 875 483 849 535 875 b 819 847 705 875 763 862 l 858 961 b 653 994 831 969 737 994 b 331 769 489 994 360 949 l 315 674 l 178 674 l 158 561 z "},"ﬄ":{"ha":1629,"x_min":0,"x_max":0,"o":"m 294 561 l 198 0 l 336 0 l 433 561 l 869 561 l 773 0 l 912 0 l 1008 561 l 1309 561 l 1328 674 l 1028 674 l 1043 762 b 1215 889 1060 862 1108 889 b 1382 861 1272 889 1327 876 l 1421 975 b 1222 1008 1379 988 1298 1008 b 906 776 1061 1008 938 963 l 889 674 l 453 674 l 467 754 b 647 875 483 849 535 875 b 819 847 705 875 763 862 l 858 961 b 653 994 831 969 737 994 b 331 769 489 994 360 949 l 315 674 l 178 674 l 158 561 z m 1363 0 l 1501 0 l 1671 982 l 1532 982 z "},"₀":{"ha":764,"x_min":0,"x_max":0,"o":"m 345 -235 b 681 85 517 -235 681 -136 b 429 317 681 244 567 317 b 93 -6 272 317 93 221 b 345 -235 93 -160 201 -235 z m 216 6 b 421 220 216 138 307 220 b 557 74 500 220 557 169 b 359 -138 557 -60 460 -138 b 216 6 272 -138 216 -89 z "},"₁":{"ha":764,"x_min":0,"x_max":0,"o":"m 122 -116 l 105 -218 l 624 -218 l 641 -116 l 454 -116 l 526 300 l 438 300 l 213 247 l 212 149 l 392 185 l 339 -116 z "},"₂":{"ha":764,"x_min":0,"x_max":0,"o":"m 444 103 l 326 69 b 99 -131 170 22 114 -37 l 84 -218 l 626 -218 l 643 -118 l 221 -118 l 224 -106 b 378 -17 228 -77 256 -51 l 483 15 b 683 191 643 63 683 106 b 464 317 683 274 609 317 b 183 264 359 317 253 290 l 210 167 b 451 218 281 195 373 218 b 556 174 526 218 556 205 b 444 103 556 149 538 131 z "},"₃":{"ha":764,"x_min":0,"x_max":0,"o":"m 107 -98 l 76 -192 b 327 -235 140 -217 229 -235 b 651 -40 517 -235 651 -187 b 547 67 651 8 618 57 b 658 200 616 82 658 129 b 444 317 658 291 559 317 b 178 273 333 317 231 291 l 197 181 b 431 223 265 203 363 223 b 523 176 499 223 523 203 b 399 97 523 133 503 97 l 260 97 l 244 6 l 390 6 b 519 -51 477 6 519 -6 b 342 -138 519 -106 457 -138 b 107 -98 235 -138 161 -118 z "},"₄":{"ha":764,"x_min":0,"x_max":0,"o":"m 458 -116 l 440 -218 l 548 -218 l 565 -116 l 664 -116 l 680 -24 l 581 -24 l 637 300 l 483 300 l 109 -11 l 91 -116 z m 230 -24 l 515 213 l 473 -24 z "},"₅":{"ha":764,"x_min":0,"x_max":0,"o":"m 126 -89 l 93 -183 b 351 -235 140 -206 229 -235 b 658 -31 539 -235 658 -167 b 444 113 658 74 567 113 b 283 86 379 113 330 102 l 315 205 l 630 205 l 646 300 l 240 300 l 167 36 l 233 -13 b 417 22 287 6 343 22 b 535 -45 513 22 535 -4 b 370 -136 535 -103 467 -136 b 126 -89 256 -136 186 -114 z "},"₆":{"ha":764,"x_min":0,"x_max":0,"o":"m 368 -235 b 668 -23 553 -235 668 -149 b 468 124 668 86 580 124 b 241 49 378 124 291 92 b 250 81 242 60 246 71 b 477 221 278 169 366 221 b 638 192 538 221 588 208 l 675 284 b 486 317 635 301 574 317 b 117 -17 253 317 117 182 b 368 -235 117 -160 217 -235 z m 236 -39 b 449 36 285 2 377 36 b 553 -37 516 36 553 11 b 382 -139 553 -108 471 -139 b 236 -39 310 -139 248 -111 z "},"₇":{"ha":764,"x_min":0,"x_max":0,"o":"m 199 -160 l 284 -235 l 692 193 l 710 300 l 189 300 l 172 201 l 551 201 z "},"₈":{"ha":764,"x_min":0,"x_max":0,"o":"m 275 56 b 101 -103 172 32 101 -13 b 353 -233 101 -197 210 -233 b 651 -66 512 -233 651 -180 b 527 51 651 0 603 40 b 665 188 600 67 665 108 b 444 317 665 267 581 317 b 177 156 298 317 177 262 b 275 56 177 99 219 70 z m 226 -81 b 393 9 226 -26 301 9 b 531 -67 476 9 531 -19 b 366 -145 531 -111 468 -145 b 226 -81 258 -145 226 -119 z m 298 158 b 431 233 298 203 347 233 b 541 173 504 233 541 211 b 407 92 541 123 474 92 b 298 158 347 92 298 117 z "},"₉":{"ha":764,"x_min":0,"x_max":0,"o":"m 323 -235 b 691 99 581 -235 691 -103 b 440 317 691 242 588 317 b 151 102 292 317 151 247 b 351 -46 151 -17 256 -46 b 566 17 449 -46 524 -15 b 556 -13 564 6 560 -3 b 342 -140 527 -96 447 -140 b 149 -110 265 -140 203 -128 l 121 -203 b 323 -235 168 -220 246 -235 z m 267 115 b 433 228 267 179 327 228 b 574 103 512 228 569 192 b 373 44 528 71 451 44 b 267 115 312 44 267 65 z "},"₍":{"ha":382,"x_min":0,"x_max":0,"o":"m 353 272 l 284 353 b 101 -8 196 284 101 179 b 178 -273 101 -129 143 -217 l 274 -223 b 217 -1 251 -178 217 -100 b 353 272 217 129 279 201 z "},"₎":{"ha":382,"x_min":0,"x_max":0,"o":"m 49 -232 l 117 -313 b 300 48 206 -244 300 -139 b 224 313 300 169 258 257 l 127 263 b 184 41 151 219 184 140 b 49 -232 184 -89 122 -161 z "},"¹":{"ha":764,"x_min":0,"x_max":0,"o":"m 248 597 l 231 494 l 749 494 l 767 597 l 580 597 l 651 1013 l 564 1013 l 338 959 l 338 861 l 517 898 l 465 597 z "},"²":{"ha":764,"x_min":0,"x_max":0,"o":"m 570 816 l 451 781 b 224 582 296 734 240 676 l 210 494 l 752 494 l 769 594 l 347 594 l 349 606 b 503 696 354 635 382 661 l 608 727 b 808 903 769 775 808 818 b 590 1030 808 987 735 1030 b 309 976 485 1030 378 1003 l 335 880 b 577 931 407 908 499 931 b 681 887 651 931 681 917 b 570 816 681 861 664 843 z "},"³":{"ha":764,"x_min":0,"x_max":0,"o":"m 233 615 l 201 521 b 453 478 265 495 355 478 b 776 672 643 478 776 526 b 672 780 776 721 744 769 b 784 913 742 794 784 842 b 569 1030 784 1003 685 1030 b 304 985 459 1030 357 1003 l 322 893 b 557 935 390 916 489 935 b 649 888 625 935 649 915 b 524 810 649 846 628 810 l 385 810 l 369 719 l 516 719 b 645 661 603 719 645 706 b 467 574 645 606 583 574 b 233 615 361 574 287 594 z "},"⁰":{"ha":764,"x_min":0,"x_max":0,"o":"m 471 478 b 806 797 642 478 806 576 b 555 1030 806 957 693 1030 b 219 707 398 1030 219 933 b 471 478 219 553 327 478 z m 342 718 b 547 933 342 851 433 933 b 683 787 626 933 683 881 b 485 574 683 652 585 574 b 342 718 397 574 342 624 z "},"⁴":{"ha":764,"x_min":0,"x_max":0,"o":"m 583 597 l 566 494 l 674 494 l 691 597 l 790 597 l 806 689 l 707 689 l 763 1013 l 608 1013 l 235 701 l 217 597 z m 356 689 l 640 925 l 599 689 z "},"⁵":{"ha":764,"x_min":0,"x_max":0,"o":"m 252 624 l 219 529 b 477 478 266 507 355 478 b 784 681 665 478 784 546 b 570 825 784 787 692 825 b 408 799 505 825 456 815 l 441 917 l 756 917 l 772 1013 l 366 1013 l 293 749 l 359 699 b 542 734 413 718 469 734 b 661 667 639 734 661 708 b 496 576 661 610 592 576 b 252 624 382 576 312 599 z "},"⁶":{"ha":764,"x_min":0,"x_max":0,"o":"m 494 478 b 794 690 679 478 794 563 b 594 837 794 799 706 837 b 367 762 503 837 417 804 b 376 793 368 773 372 783 b 603 933 404 881 492 933 b 763 905 663 933 713 921 l 801 997 b 612 1030 760 1013 699 1030 b 243 695 379 1030 243 894 b 494 478 243 552 343 478 z m 362 674 b 575 749 411 715 503 749 b 679 676 642 749 679 724 b 508 574 679 605 597 574 b 362 674 435 574 374 601 z "},"⁷":{"ha":764,"x_min":0,"x_max":0,"o":"m 325 552 l 410 478 l 817 906 l 835 1013 l 315 1013 l 297 914 l 677 914 z "},"⁸":{"ha":764,"x_min":0,"x_max":0,"o":"m 401 769 b 227 610 297 744 227 699 b 479 479 227 515 336 479 b 777 647 638 479 777 533 b 653 764 777 713 729 753 b 790 900 726 779 790 820 b 569 1030 790 979 706 1030 b 303 868 424 1030 303 974 b 401 769 303 812 345 783 z m 351 631 b 519 722 351 687 426 722 b 656 645 601 722 656 693 b 492 567 656 601 594 567 b 351 631 384 567 351 594 z m 424 871 b 557 946 424 916 472 946 b 667 885 630 946 667 924 b 533 805 667 835 600 805 b 424 871 472 805 424 829 z "},"⁹":{"ha":764,"x_min":0,"x_max":0,"o":"m 449 478 b 817 811 706 478 817 609 b 566 1030 817 955 713 1030 b 277 815 417 1030 277 960 b 477 667 277 696 381 667 b 692 729 574 667 650 698 b 681 699 690 719 686 709 b 468 572 653 617 573 572 b 275 603 390 572 329 584 l 247 510 b 449 478 294 492 372 478 z m 393 828 b 558 940 393 892 453 940 b 700 816 638 940 695 905 b 499 756 653 783 577 756 b 393 828 438 756 393 778 z "},"⁽":{"ha":382,"x_min":0,"x_max":0,"o":"m 467 917 l 398 999 b 215 638 310 929 215 824 b 292 372 215 516 257 428 l 388 422 b 331 644 365 467 331 545 b 467 917 331 774 393 847 z "},"⁾":{"ha":382,"x_min":0,"x_max":0,"o":"m 163 413 l 231 332 b 414 693 319 401 414 506 b 338 958 414 815 372 902 l 241 908 b 298 686 265 864 298 785 b 163 413 298 556 236 484 z "},"⁺":{"ha":382,"x_min":0,"x_max":0,"o":"m 253 649 l 233 526 l 335 526 l 356 649 l 469 649 l 484 736 l 371 736 l 390 849 l 288 849 l 269 736 l 153 736 l 138 649 z "},"⁻":{"ha":382,"x_min":0,"x_max":0,"o":"m 154 742 l 135 639 l 467 639 l 485 742 z "},"⁼":{"ha":382,"x_min":0,"x_max":0,"o":"m 140 660 l 123 563 l 454 563 l 471 660 z m 151 728 l 483 728 l 499 825 l 168 825 z "},"ẞ":{"ha":2160,"x_min":0,"x_max":0,"o":"m 1598 -27 b 2110 306 1888 -27 2110 46 b 1732 528 2110 498 1910 516 b 1451 639 1585 538 1451 545 b 1763 798 1451 742 1549 798 b 2091 744 1889 798 1991 774 l 2129 863 b 1766 921 2047 891 1920 921 b 1308 623 1521 921 1308 842 b 1673 401 1308 433 1491 413 b 1971 278 1826 391 1971 387 b 1613 99 1971 154 1815 99 b 1244 178 1463 99 1326 141 l 1198 55 b 1598 -27 1279 15 1418 -27 z m 118 55 b 518 -27 199 15 338 -27 b 1031 306 808 -27 1031 46 b 652 528 1031 498 831 516 b 372 639 506 538 372 545 b 683 798 372 742 469 798 b 1011 744 809 798 911 774 l 1049 863 b 686 921 967 891 840 921 b 228 623 441 921 228 842 b 593 401 228 433 411 413 b 891 278 747 391 891 387 b 533 99 891 154 735 99 b 165 178 383 99 246 141 z "}," ":{"ha":694,"x_min":0,"x_max":0,"o":""}," ":{"ha":471,"x_min":0,"x_max":0,"o":""}," ":{"ha":1389,"x_min":0,"x_max":0,"o":""}}}
